<?xml version="1.0" encoding="UTF-8"?>
<svg id="Capa_2" data-name="Capa 2" xmlns="http://www.w3.org/2000/svg" xmlns:xlink="http://www.w3.org/1999/xlink" viewBox="0 0 505.93 177.87">
  <defs>
    <style>
      .cls-1 {
        fill: url(#Degradado_sin_nombre_173);
      }

      .cls-2 {
        fill: url(#Degradado_sin_nombre_173-3);
      }

      .cls-3 {
        fill: url(#Degradado_sin_nombre_173-2);
      }

      .cls-4 {
        fill: #1d1d1b;
        font-family: WastedVindeyRegular, 'Wasted Vindey';
        font-size: 41.82px;
      }
    </style>
    <linearGradient id="Degradado_sin_nombre_173" data-name="Degradado sin nombre 173" x1="0" y1="94.42" x2="115.34" y2="94.42" gradientUnits="userSpaceOnUse">
      <stop offset="0" stop-color="#e3ad17"/>
      <stop offset="1" stop-color="#997314"/>
    </linearGradient>
    <linearGradient id="Degradado_sin_nombre_173-2" data-name="Degradado sin nombre 173" x1="101.11" y1="88.94" x2="505.93" y2="88.94" xlink:href="#Degradado_sin_nombre_173"/>
    <linearGradient id="Degradado_sin_nombre_173-3" data-name="Degradado sin nombre 173" x1="421.82" y1="95.01" x2="473.78" y2="95.01" xlink:href="#Degradado_sin_nombre_173"/>
  </defs>
  <g id="Capa_1-2" data-name="Capa 1">
    <text class="cls-4" transform="translate(173.69 58.71)"><tspan x="0" y="0">Dress Code</tspan></text>
    <g>
      <path class="cls-1" d="M105.46,142.03c-1.56,0-8.05,5.39-17.86,9.74-9.35,4.16-21.24,7.27-33.57,8.77-2.27.26-6.88.39-11.37.39s-8.9-.13-10.78-.39c-14.48-2.08-21.82-8.38-21.82-18.57,0-6.04,2.73-12.73,9.74-18.83,7.4-6.49,18.25-11.69,28.77-13.7,6.43-1.23,16.3-.71,17.08-1.17.39-.19.58-.52.58-.91,0-.84-.06-1.49-6.62-2.4-15.26-2.27-25.78-7.27-29.03-13.9-1.1-2.27-1.3-3.57-1.3-6.69,0-15.07,21.17-35.13,43.12-46.37,11.3-5.78,21.04-8.51,27.08-8.51,4.09,0,5.78,1.17,7.92,4.94,2.53,4.35,3.83,10.33,4.16,19.48.26,5.97.65,6.1,1.36,6.1,1.04,0,2.4-1.36,2.4-10,0-9.68,0-11.3-.78-14.09-2.08-7.6-5.84-11.56-12.47-13.25-1.36-.39-3.77-.52-6.3-.52s-5.26.13-7.27.52c-15.07,2.66-33.58,12.01-47.93,24.29-14.94,12.73-21.43,24.61-21.43,34.74s6.17,18.12,17.6,22.53l3.05,1.17c-11.17,2.86-18.38,5.39-26.37,11.43-10.39,7.86-13.44,16.11-13.44,23.51,0,9.87,7.4,18.7,17.4,22.99,3.12,1.3,9.03,2.66,13.31,3.05,2.53.26,5.2.32,7.92.32,17.99,0,39.22-4.87,52.99-12.34,6.95-3.77,14.68-9.81,14.68-11.5,0-.58-.32-.84-.84-.84Z"/>
      <path class="cls-3" d="M459.3,17.86c-4.55-.19-8.25-.39-8.31-.45,0-.39,8.18-11.17,9.03-12.27.39-.65.58-1.36.58-1.95,0-2.66-2.47-3.18-6.43-3.18q-7.21,7.53-15,17.14c-32.02,0-54.29.13-54.29,3.64,0,2.08,3.96,2.86,5.71,4.22.58.52,1.04.78,1.3.78s.39-.19.39-.58c0-.84-.33-1.23-.33-1.62,0-1.23,34.55-2.14,40.33-2.14,2.4,0,3.31.06,3.31.26s-4.22,6.04-4.29,6.1c-18.64,25.98-33.38,52.67-36.82,66.44-.33,1.31-.59,2.61-.82,3.89-.94.71-2.06,1.61-3.4,2.74-10.71,8.9-18.05,12.92-23.7,12.92-1.82,0-2.27-.13-3.05-.91s-.91-1.23-.91-3.05c0-6.56,6.62-17.79,6.62-23.96,0-3.96-2.53-6.69-6.17-6.69-4.35,0-12.79,4.29-20.13,10.13-1.43,1.1-2.73,2.08-2.86,2.08,0-.45,8.7-9.94,8.7-12.6,0-2.01-2.14-3.44-4.68-3.44-1.17,0-2.47.32-3.64,1.1-1.69,1.1-6.88,6.75-10.39,11.3-3.06,3.95-5.67,7.66-7.73,11.03-.35.27-.72.56-1.1.85-12.14,9.61-21.82,13.38-28.38,13.38-4.68,0-7.34-2.79-7.34-7.4s2.53-10.91,7.53-18.64c2.92-4.48,3.77-5.97,3.77-7.01,0-1.69-2.27-3.25-4.29-3.25-3.12,0-5.2,2.08-8.9,5.65-4.61-5-7.86-7.4-15.59-7.4-1.82,0-3.77.19-5.78.58-12.99,2.47-24.74,14.61-24.74,25.91,0,2.69.47,5.23,1.51,7.34-2.34-.13-5.76-.23-10.53-.26-5.2,0-6.75-.13-6.75-.39,0-1.23,9.29-21.89,9.29-26.24,0-1.62-1.62-3.12-3.44-3.12-2.47,0-2.73.78-4.68,3.9-1.49-4.22-4.94-8.77-12.14-8.77-9.16,0-19.55,8.25-23.12,17.66-.65,1.75-.78,2.79-.78,6.43,0,.09,0,.18,0,.27-9.79,7.69-20.06,13.37-27.4,13.37-6.04,0-11.3-2.47-11.3-8.57,0-2.4.65-5.46,1.17-5.58,9.87-2.34,17.21-9.68,17.21-15.98,0-4.42-3.38-6.36-7.4-6.36-8.82,0-18.63,12.18-19.59,22.97-5.64,4.59-13.74,11.04-19.11,13.52-3.31,1.56-5.91,2.34-7.79,2.34-2.79,0-4.42-1.43-4.42-5.65,0-16.3,24.22-51.95,54.81-91.11,2.01-2.6,2.79-3.96,2.79-4.87,0-1.62-2.4-2.79-3.83-2.79-.97,0-1.95.26-2.92.84-4.09,2.34-20.59,23.05-33.12,41.43-17.92,26.3-24.87,40.91-24.87,52.21,0,4.16.07,4.68.91,6.43,1.69,3.64,4.29,5.78,7.53,6.23.58.06,1.23.13,1.88.13,5.26,0,11.75-3.05,19.29-9.03,2.46-1.94,5.81-4.79,8.79-7.43.32,8.65,7.91,14.5,17.57,14.5,6.23,0,13.57-2.21,22.99-9.03,2.49-1.78,4.89-3.62,6.85-5.22.07,1.74.27,2.4.88,3.66,3.31,6.62,7.27,5.71,7.27,5.97,0,.32-12.01,2.14-22.66,5.58-23.12,7.6-38.32,23.25-38.32,39.68,0,11.49,9.16,22.34,22.28,22.34,5.58,0,12.14-2.01,18.38-5.65,18.96-11.3,31.56-29.35,45.98-61.89,4.59-.45,13.76-.46,18.85-.61,1.76,2.85,4.72,4.7,9.2,4.7,6.75,0,14.68-5.97,22.92-14.29,2.4-2.47,3.7-3.7,4.03-3.7.07,0,.07.06.07.13,0,.78-.46.39-.46,5.2,0,1.3.06,2.47.2,3.18,1.17,5.39,5.13,9.68,10.71,11.43.91.32,3.12.45,5,.45,5.85,0,12.08-2.14,19.35-6.56,2.62-1.58,5.99-4.07,8.97-6.48-1.6,3.28-2.48,6.08-2.48,8.23,0,1.82,1.62,2.79,2.99,2.79,2.27,0,14.68-16.24,24.55-24.09,7.08-5.71,13.83-8.7,16.5-8.7.13,0,.26,0,.32.06,0,.06.07.13.07.19,0,1.04-7.08,15.2-7.08,22.79,0,4.29.78,6.23,3.25,8.7,1.3,1.3,2.53,2.14,3.7,2.53,1.04.32,2.21.52,3.44.52,5,0,11.62-2.73,18.38-7.73,3.41-2.48,7.3-5.89,10.09-8.54-.23,1.84-.36,3.6-.36,5.23,0,6.17,1.43,9.42,4.48,10.72.52.19.97.32,1.43.32.97,0,2.66-1.3,2.66-1.95,0-.39-.65-.97-1.3-.97-.78,0-1.17.71-1.43.71-.2,0-.26-.32-.26-.97,0-2.79,1.43-11.17,4.22-18.18,5.71-14.74,23.96-44.74,45.13-74.1,16.82,0,51.43,1.75,54.55,2.66,1.17.19.52,1.49,2.08,1.49.78,0,1.43-.52,1.43-1.1,0-3.25-17.14-5.33-46.63-6.56ZM153.51,88.39c2.73-4.09,6.95-7.47,7.86-7.47.58,0,1.56,1.23,1.56,2.66,0,3.25-3.83,7.73-9.35,10.46-1.75.84-3.38,1.49-3.57,1.49-.07,0-.07-.06-.07-.13,0-.78,1.82-4.42,3.57-7.01ZM204.74,118.84c-10.97,20.85-17.01,29.81-26.62,39.42-10.98,11.24-18.96,14.09-24.03,14.09-8.9,0-16.3-7.66-16.3-17.92,0-13.51,12.21-34.35,56.63-41.76,5.84-.91,11.82-1.69,13.64-1.69.32,0,.46,0,.52.06,0,.32-1.69,3.77-3.83,7.79ZM209.88,108.78c-.13.26-8.57,1.04-10,1.04-.39,0-.52,0-.52-.06,0-.13.45-.39,1.17-.71,3.9-1.88,10.46-7.73,15-13.57,1.1-1.43,2.08-2.53,2.21-2.53,0,.26-7.53,15.52-7.86,15.85ZM217.41,90.33c-9.22,11.43-17.47,16.82-20.91,16.82-1.43,0-1.88-1.04-1.88-3.64,0-4.94,1.62-9.42,7.47-15.26,4.03-4.09,8.83-6.82,11.17-6.82,3.38,0,7.34,4.29,7.34,4.61,0,.13-1.43,2.08-3.18,4.29ZM280.01,87.22c-2.27,3.51-3.83,5.26-9.42,10.39-9.81,9.09-16.82,13.31-20.98,13.31-1.88,0-2.6-.84-3.9-2.01v-3.44c0-3.31.06-3.57,1.49-6.56,5.13-10.59,14.35-17.27,23.64-17.27,3.9,0,6.88,1.49,10.65,3.25l-1.49,2.34Z"/>
      <path class="cls-2" d="M473.19,95.72c-.58,0-1.69.71-3.7,2.34-9.87,7.79-20.26,13.57-27.67,13.57-6.04,0-11.3-2.47-11.3-8.57,0-2.4.65-5.46,1.17-5.58,9.87-2.34,17.21-9.68,17.21-15.98,0-4.42-3.38-6.36-7.4-6.36-9.29,0-19.68,13.51-19.68,24.68,0,8.96,7.73,15.07,17.6,15.07,6.23,0,13.57-2.21,22.99-9.03,5.91-4.22,11.36-8.83,11.36-9.61,0-.39-.45-.52-.58-.52ZM435.85,88.39c2.73-4.09,6.95-7.47,7.86-7.47.58,0,1.56,1.23,1.56,2.66,0,3.25-3.83,7.73-9.35,10.46-1.75.84-3.38,1.49-3.57,1.49-.07,0-.07-.06-.07-.13,0-.78,1.82-4.42,3.57-7.01Z"/>
    </g>
  </g>
</svg>