<?xml version="1.0" encoding="UTF-8"?>
<svg id="Capa_2" data-name="Capa 2" xmlns="http://www.w3.org/2000/svg" viewBox="0 0 747.56 137.21">
  <defs>
    <style>
      .cls-1 {
        fill: #001fff;
      }
    </style>
  </defs>
  <g id="Capa_1-2" data-name="Capa 1">
    <g>
      <path class="cls-1" d="M65.61,16.46c-.11,10.01-.1,19.67-.1,29.32-9.8-2.22-21.23,2.01-18.78,14.07,3.27-1.68,6.53-.94,9.8-1.01-3.26,7.32-6.53,15.45-5.71,24.29-1.63.04-3.27.08-3.27.08-1.63,16.16-.81,32.27-.81,48.41-12.25-.46-29.4,5.63-34.29.06-8.16-11.2-.81-30.78-3.26-46.95,0-.81-6.53,2.52-7.35.9-2.45-7.28-2.45-17.03,0-24.36.82-.82,4.9-.04,8.16-.07C5.11,36.88,22.25,13.21,48.76,15.55c7.68-.29,14.85.52,16.85.91Z"/>
      <path class="cls-1" d="M136.48,90.66c-10.09-1.07-19.48,1.28-27.93,7.38-8.92,5.63-27.23-.47-21.59-6.57,10.33-12.21,31.92-6.1,48.82-7.98-1.41-10.8,5.63-20.65,3.76-31.92-1.41-9.86-9.86-15.49-19.25-17.37-24.41-5.63-50.7,3.29-63.84,24.88,2.82-.47,7.04-1.41,7.98,0,3.76,6.57,1.41,15.02.94,23-4.22-.94-10.8-1.41-12.67,2.35-7.51,15.02,4.22,33.8,19.25,40.84,24.41,10.8,56.33,4.22,70.44-19.59-2.71-4.32-4.72-9.37-5.9-15.01ZM100.52,61.5c8.18-.61,14.53,2.4,16.21,11.21l-32.22,2.52c1.66-9.14,7.83-13.11,16.01-13.72Z"/>
      <path class="cls-1" d="M241.51,5.61c-12.31,1.37-33.91-6.61-37.19,10.29-1.88,8.45,2.35,17.37-.94,25.35-.94-6.57-7.04-9.39-12.21-11.27-11.74-4.69-24.88-2.35-35.68,4.22-18.78,11.27-7.98,31.92-6.57,48.35-4.69-1.41-15.96,0-12.67,6.1,1.88,3.29,7.98.47,12.67.94-7.04,7.98-6.57,20.19,2.82,26.76,17.84,12.67,43.19,6.1,53.51-12.21v12.67c11.74-1.88,43.66,3.29,35.21-13.61-9.86-20.19-14.08-46.47,1.12-64.11l-.07-33.48ZM188.89,89.79c-9.18.81-16.37-4.1-16.38-14.66-.01-10.41,7.16-16.49,16.34-17.23,9.02-.72,16.2,4.16,16.22,14.49.01,10.48-7.16,16.61-16.18,17.4Z"/>
      <path class="cls-1" d="M316.74,77.34c-11.97.04-22.76,2.86-33.56,7.56-7.98,3.76-18.78-2.35-19.25-11.74,17.37-.47,34.27-2.35,51.64-2.35-1.41-13.14,11.27-27.7.94-37.55-17.37-17.84-53.04-19.72-68.07,1.88-16.43,23.94-18.31,70.41,16.43,78.39,22.06,5.16,45.53-3.76,58.06-22.02-2.91-4.22-4.98-9-6.2-14.17ZM280.65,48.22c8.17-.43,14.52,2.62,16.21,11.1l-32.21,1.75c1.65-8.7,7.82-12.42,16-12.85Z"/>
      <path class="cls-1" d="M404.51,33.25c-19.47-19.24-56.56-19.71-75.33.48-2.82,2.82-3.29,7.04-2.82,11.27,1.41,7.98,7.98,17.84,1.88,24.41-1.88,1.88-6.1-.47-8.92.94-1.88.94-3.29,4.22-.94,5.63,3.76,1.88,7.98.94,11.74.94-6.1,9.39-4.22,20.65,6.1,26.29,21.59,11.74,55.39,13.61,68.54-9.86,5.16-8.92-1.41-20.65-12.21-18.78-14.55,3.29-37.08,17.37-41.78-4.69,17.84,0,36.15,0,53.82-.34l-.08-36.29ZM351.26,57.63c1.65-8.52,7.81-11.93,15.97-11.98,8.17-.05,14.51,3.28,16.19,11.77l-32.16.21Z"/>
      <path class="cls-1" d="M484.55,51.95c-.93-12.11,10.81-19.16,18.79-26.2-29.1-9.86-54.45,3.76-63.84,32.86V2.75c-11.27,0-24.88-7.04-33.8,1.41-4.69,4.22-4.22,11.74-2.82,18.31,3.76,16.43,15.96,30.51,11.74,47.88-4.22-.94-13.14-1.88-9.86,4.22,1.88,3.29,6.57,1.41,10.33,1.88-1.41,7.51-5.63,14.08-9.86,20.65-1.88,3.76-1.88,9.39,0,10.33,10.8,3.29,22.53.94,34.27,2.35v-43.19c11.27,20.19,20.65,55.86,47.41,44.13,2.82-1.41,0-12.67,1.41-20.19,0-.47,1.88.94,3.29.94-4.22-9.86-10.33-18.31-15.95-27.14l8.9-12.38Z"/>
      <path class="cls-1" d="M562.53,63.12c-13.32-8.4-28.8-1.15-41.85-9.46-.82-.81,0-3.93.81-3.9,15.48-4.18,30.97,3.54,44.83.25,7.33-1.21,3.25-12.46,4.06-19.52-30.97-1.35-71.74-15.07-82.3,21.48-6.49,27.26,28.56,33.82,50.56,34.62,2.44.09,4.89,4.93,2.45,5.61-14.66,5.76-30.97-1.9-46.45-.82,4.9,7.24,7.35,19.15,14.68,20.2,20.37,5.49,54.6,16.51,60.29-6.18,1.63-6.24-8.16-20.16-8.17-31.76,0-3.73.37-7.24,1.08-10.53Z"/>
      <path class="cls-1" d="M627.12,86.35c-2.92,10.43-15.95,11.98-24.92,5.9-7.34-5.18-8.97-14.75-5.71-22.46,2.44-4.6,7.33-6.68,12.22-7.17,8.15.5,14.67,8.02,20.38,13.13,2.45,3.32,14.67,5.69,17.12,2.68,4.07-5.28,8.96-15.28,7.33-20.14-6.53-21.07-33.43-27.45-54.62-25.5-11.41.96-28.52,5.6-28.51,19.01-6.52-1.11-5.7,7.6-8.14,11.42,15.49,8.68,13.06,29.07,13.88,43.34,0,13.46,23.64,18.78,39.12,20.52,15.48.98,33.41-3.39,37.48-17.37,1.63-5.43-4.89-12.97-4.91-20.94l-20.7-2.41Z"/>
      <path class="cls-1" d="M697.61,41.16c-16.36-1.89-36.74,2.47-40.81,17.32-1.63,5.45,7.34,15.54,3.27,21.62-1.63,2.27-9.78-2.21-11.41.06-6.52,8.28,5.71,7.49,10.6,11.77,4.89,3.48-4.89,13.13-3.26,17.98,8.15,25.84,44.01,32.82,67.65,23.12,15.49-7.1,24.47-23.28,23.89-39.72,0-28.92-20.97-49.58-49.92-52.14ZM697.63,105.01c-9.15-.97-16.3-7.34-16.31-18.02s6.98-15.36,16.3-14.42c8.98.9,16.13,7.2,16.13,17.77s-7.15,15.62-16.12,14.67Z"/>
    </g>
  </g>
</svg>