<?xml version="1.0" encoding="UTF-8"?>
<svg id="Capa_2" data-name="Capa 2" xmlns="http://www.w3.org/2000/svg" xmlns:xlink="http://www.w3.org/1999/xlink" viewBox="0 0 258.93 257.25">
  <defs>
    <style>
      .cls-1 {
        fill: url(#Degradado_sin_nombre_193);
      }

      .cls-2 {
        fill: url(#Degradado_sin_nombre_193-4);
      }

      .cls-3 {
        fill: url(#Degradado_sin_nombre_193-3);
      }

      .cls-4 {
        fill: url(#Degradado_sin_nombre_193-2);
      }
    </style>
    <linearGradient id="Degradado_sin_nombre_193" data-name="Degradado sin nombre 193" x1="0" y1="142.77" x2="258.93" y2="142.77" gradientUnits="userSpaceOnUse">
      <stop offset="0" stop-color="#e3ad17"/>
      <stop offset="1" stop-color="#997314"/>
    </linearGradient>
    <linearGradient id="Degradado_sin_nombre_193-2" data-name="Degradado sin nombre 193" x1="78.57" y1="62.49" x2="164.62" y2="62.49" xlink:href="#Degradado_sin_nombre_193"/>
    <linearGradient id="Degradado_sin_nombre_193-3" data-name="Degradado sin nombre 193" x1="171.59" y1="114.49" x2="228.58" y2="114.49" xlink:href="#Degradado_sin_nombre_193"/>
    <linearGradient id="Degradado_sin_nombre_193-4" data-name="Degradado sin nombre 193" x1="156.59" y1="28.51" x2="213.58" y2="28.51" xlink:href="#Degradado_sin_nombre_193"/>
  </defs>
  <g id="Capa_1-2" data-name="Capa 1">
    <path class="cls-1" d="M75.22,157.92c48.84,50.34,130.05,54.36,183.11,8.39.77-.15.59.91.51,1.5-.74,5.11-7.09,17.23-9.84,22.17-36.47,65.42-122.13,86.82-186.09,47.74C-12.06,191.91-22.03,86.55,43.82,28.3c-13.1,45.44-1.5,95.71,31.4,129.62Z"/>
    <path class="cls-4" d="M164.58,62.01c.29,1.35-1.04,1.12-2,1.46-7.58,2.68-25.02,5.45-30,11.01-5.76,6.43-6.42,20.39-9.95,28.05-.46.99-.61,2.35-2.03,2.46-1.91-7.88-3.8-17.11-6.97-24.53-6.05-14.12-22.89-11.9-35.05-17.97,8.31-4.02,25.86-5.06,32.02-11.99,5.24-5.88,7.46-22.68,10-30.51,1.39.13,1.6,1.43,2.04,2.45,3.34,7.9,4.54,23.07,10.91,29.09,5.89,5.57,23.13,7.82,31.04,10.46Z"/>
    <path class="cls-3" d="M228.58,114.01l-14.68,4.8c-10.56,3.13-10.44,15.58-13.81,24.2-3.38-5.8-3.34-16.88-8.58-21.43-4.08-3.55-14.61-4.98-19.92-6.59,5.7-4.77,15.16-3.22,20.55-8.94,4.75-5.05,4.42-14.19,7.95-20.06,1.13.02,3.94,17.46,7.97,21.04s15.32,4.5,20.52,6.98Z"/>
    <path class="cls-2" d="M192.89,20.69c3.7,3.39,13.33,4.47,18.13,6.37,1.04.41,2.41.36,2.57,1.92-5.33,1.61-15.82,3.03-19.92,6.59s-5.44,14.12-7.59,19.43c-.39.96-.12,2.28-1.48,1.99-2.31-8.05-2.77-20.55-12.03-23.48l-15.98-5.5c5.19-2.25,16.49-3.39,20.52-6.98s5.89-15.66,7.48-21.03l8.29,20.69Z"/>
  </g>
</svg>