<?xml version="1.0" encoding="UTF-8"?>
<svg id="Capa_2" data-name="Capa 2" xmlns="http://www.w3.org/2000/svg" xmlns:xlink="http://www.w3.org/1999/xlink" viewBox="0 0 478.08 446.15">
  <defs>
    <style>
      .cls-1 {
        letter-spacing: 0em;
      }

      .cls-2 {
        fill: url(#Degradado_sin_nombre_163-5);
      }

      .cls-3 {
        fill: url(#Degradado_sin_nombre_163-4);
      }

      .cls-4 {
        letter-spacing: 0em;
      }

      .cls-5 {
        letter-spacing: .55em;
      }

      .cls-6 {
        fill: url(#Degradado_sin_nombre_163-6);
      }

      .cls-7 {
        letter-spacing: .09em;
      }

      .cls-8 {
        fill: url(#Degradado_sin_nombre_163-3);
      }

      .cls-9 {
        letter-spacing: .09em;
      }

      .cls-10 {
        letter-spacing: .52em;
      }

      .cls-11 {
        letter-spacing: .45em;
      }

      .cls-12 {
        letter-spacing: .1em;
      }

      .cls-13 {
        letter-spacing: .76em;
      }

      .cls-14 {
        fill: url(#Degradado_sin_nombre_163-2);
      }

      .cls-15 {
        letter-spacing: .55em;
      }

      .cls-16 {
        fill: url(#Degradado_sin_nombre_163);
      }

      .cls-17 {
        font-size: 43.99px;
      }

      .cls-17, .cls-18 {
        fill: #000100;
        font-family: WastedVindeyRegular, 'Wasted Vindey';
      }

      .cls-19 {
        letter-spacing: .45em;
      }

      .cls-20 {
        letter-spacing: .76em;
      }

      .cls-21 {
        letter-spacing: .09em;
      }

      .cls-18 {
        font-size: 37.39px;
      }

      .cls-22 {
        letter-spacing: .46em;
      }
    </style>
    <linearGradient id="Degradado_sin_nombre_163" data-name="Degradado sin nombre 163" x1="3.92" y1="98.77" x2="441.8" y2="144.49" gradientUnits="userSpaceOnUse">
      <stop offset="0" stop-color="#e3ad17"/>
      <stop offset="1" stop-color="#997314"/>
    </linearGradient>
    <linearGradient id="Degradado_sin_nombre_163-2" data-name="Degradado sin nombre 163" x1="7.02" y1="69.04" x2="444.91" y2="114.76" xlink:href="#Degradado_sin_nombre_163"/>
    <linearGradient id="Degradado_sin_nombre_163-3" data-name="Degradado sin nombre 163" x1="7.39" y1="65.47" x2="445.28" y2="111.19" xlink:href="#Degradado_sin_nombre_163"/>
    <linearGradient id="Degradado_sin_nombre_163-4" data-name="Degradado sin nombre 163" x1="8.17" y1="58.01" x2="446.06" y2="103.73" xlink:href="#Degradado_sin_nombre_163"/>
    <linearGradient id="Degradado_sin_nombre_163-5" data-name="Degradado sin nombre 163" x1="7.46" y1="64.81" x2="445.35" y2="110.52" xlink:href="#Degradado_sin_nombre_163"/>
    <linearGradient id="Degradado_sin_nombre_163-6" data-name="Degradado sin nombre 163" x1="7.88" y1="60.85" x2="445.76" y2="106.57" xlink:href="#Degradado_sin_nombre_163"/>
  </defs>
  <g id="Capa_1-2" data-name="Capa 1">
    <g>
      <path class="cls-16" d="M72.73,63.98c.84-1.32,1-1.6,1.4-1.6.44,0,1.12.12,10.18.2,0-1.56-.2-1.8-9.66-2.75-2.67-.28-11.09-.52-15.92-.52-1.76,0-3.03.04-3.39.12-.72.12-1.12.52-1.12,1.04,0,.56.56,1.2.96,1.28.48.2,11.33.28,11.33.68v.04c-.04.16-1.16,1.76-2.43,3.55-18.92,26.58-40.35,66.04-43.34,78.02-.08.4-8.22.2-8.22,1.24,0,.24.2.6.68.8.16.08,3.15.12,6.9.12,6.62,0,15.76-.12,16.4-.24.36-.08.48-.28.48-.48,0-.28-.32-.6-.88-.72-1.88-.4-11.73-.52-11.73-.84,0-.8,13.33-24.7,13.33-24.7,12.85-22.71,32.64-51.28,35.04-55.23Z"/>
      <path class="cls-14" d="M162.33,88.92c1.99,0,5.03-3.95,5.03-5.43,0-.96-1.16-1.6-2.16-1.6-1.8,0-4.91,3.75-4.91,5.67,0,.44.2.8.52,1.04.28.16.96.32,1.52.32Z"/>
      <path class="cls-8" d="M205.79,56.83c10.34,0,31.61,1.08,33.52,1.64.72.12.32.92,1.28.92.48,0,.88-.32.88-.68,0-2-10.54-3.27-28.65-4.03-2.79-.12-5.07-.24-5.11-.28,0-.24,5.03-6.86,5.55-7.54.24-.4.36-.84.36-1.2,0-1.64-1.52-1.96-3.95-1.96q-4.43,4.63-9.22,10.54c-19.67,0-33.36.08-33.36,2.23,0,1.28,2.43,1.76,3.51,2.59.36.32.64.48.8.48s.24-.12.24-.36c0-.52-.2-.76-.2-1,0-.76,21.23-1.32,24.78-1.32,1.48,0,2.04.04,2.04.16s-2.59,3.71-2.63,3.75c-11.45,15.96-20.51,32.36-22.63,40.82-.18.71-.33,1.4-.46,2.1-3.79,3.38-10.74,9.84-15.63,9.84-2.71,0-3.59-1.36-3.59-3.43,0-2.91,1.08-6.54,4.79-12.21,1.72-2.59,2.04-3.23,2.04-3.87,0-.96-1.2-1.64-2.43-1.64-2.2,0-6.36,4.35-8.26,9.75-1.32.28-3.01.59-5.04.59-5.75,0-8.9-2.39-8.9-2.59,0-.36,1.04-2.47,1.04-5.03,0-3.03-1.52-4.27-3.39-4.27s-3.59,1.48-3.59,3.59c0,2.31,1.48,3.91,3.83,6.34l-1.12,1.6c-4.31,6.11-11.97,10.49-16.24,10.49-2.04,0-3.11-.96-3.11-2.83,0-2.99,2.2-7.54,6.19-12.77.96-1.24,1.4-1.96,1.4-2.55,0-1.08-1.48-2.04-2.75-2.04-2.71.07-7.87,5.9-9.66,11.5-.54.41-1.14.89-1.87,1.51-6.59,5.47-11.09,7.94-14.57,7.94-1.12,0-1.4-.08-1.88-.56-.48-.48-.56-.76-.56-1.88,0-4.03,4.07-10.93,4.07-14.73,0-2.43-1.56-4.11-3.79-4.11-2.67,0-7.86,2.63-12.37,6.22-.88.68-1.68,1.28-1.76,1.28,0-.28,5.35-6.11,5.35-7.74,0-1.24-1.32-2.11-2.87-2.11-.72,0-1.52.2-2.24.68-1.04.68-4.23,4.15-6.38,6.94-4.95,6.38-7.98,11.77-7.98,14.93,0,1.12,1,1.72,1.84,1.72,1.4,0,9.02-9.98,15.08-14.81,4.35-3.51,8.5-5.35,10.14-5.35.08,0,.16,0,.2.04,0,.04.04.08.04.12,0,.64-4.35,9.34-4.35,14.01,0,2.63.48,3.83,2,5.35.8.8,1.56,1.32,2.27,1.56.64.2,1.36.32,2.11.32,3.07,0,7.14-1.68,11.29-4.75,1.94-1.41,4.12-3.3,5.8-4.87-.12.65-.21,1.3-.21,1.92,0,4.43,3.03,7.7,8.38,7.7h.48c4.07-.4,8.98-3.15,13.29-7.46,1.84-1.84,4.63-5.35,4.91-6.19,0-.04.04-.08.12-.08.24,0,.68.16,1.44.52,2.79,1.24,4.87,1.52,7.7,1.52,1.47,0,3.6-.3,5.36-.69-.43,1.46-.69,2.97-.69,4.48,0,2.24.04,2.59.56,3.63.92,1.92,2.43,3.23,4.43,3.87.84.28,1.68.4,2.55.4,3.15,0,6.74-1.76,11.25-5.43,1.09-.88,3.21-2.88,5.02-4.65-.15,1.16-.23,2.27-.23,3.3,0,3.79.88,5.79,2.75,6.58.32.12.6.2.88.2.6,0,1.64-.8,1.64-1.2,0-.24-.4-.6-.8-.6-.48,0-.72.44-.88.44-.12,0-.16-.2-.16-.6,0-1.72.88-6.86,2.59-11.17,3.51-9.06,14.73-27.5,27.73-45.53ZM134.75,97.9c-.2.56-.44,1.04-.52,1.12h-.04c-.52,0-2.31-2.59-2.31-4.35,0-1.28.88-2.27,1.72-2.27.92,0,1.64.88,1.64,2.63,0,.88-.16,1.92-.48,2.87Z"/>
      <path class="cls-3" d="M321.61,102.68c0-.16-.04-.28-.36-.28-.44,0-1.44.2-3.71.6-3.23.6-4.83.6-7.18.6-2.55,0-3.59-.16-3.59-.56l.04-.12c.88-2.67,1.28-4.63,1.28-6.15,0-3.67-2.55-5.87-5.43-5.87-2.59,0-3.31,1.48-5.27,1.76-2.39.32-5.19,1.88-7.78,4.31-2.85,2.7-4.26,5.19-4.92,7.55-.03.03-.05.04-.08.07-5.35,4.87-11.45,8.82-15.32,8.82-2.51,0-3.07-1.84-3.07-4.07,0-5.87,7.5-19,19.59-38.35,6.38-10.22,10.06-16.72,10.06-17.76s-.96-1.76-2.07-1.76c-1.44,0-2,.32-7.54,8.66-12.93,19.39-19.43,31.81-20.67,33.96-.92-1.12-3.35-3.67-7.02-3.67-3.23,0-6.19.32-10.66,4.79-2.79,2.79-4.67,5.95-5.53,8.9-.32.25-.67.52-1.02.8-7.46,5.91-13.41,8.22-17.44,8.22-2.87,0-4.51-1.72-4.51-4.55s1.56-6.7,4.63-11.45c1.8-2.75,2.32-3.67,2.32-4.31,0-1.04-1.4-2-2.63-2-1.92,0-3.19,1.28-5.47,3.47-2.83-3.07-4.83-4.55-9.58-4.55-1.12,0-2.32.12-3.55.36-7.98,1.52-15.2,8.98-15.2,15.92,0,4.31,1.96,7.98,6.9,7.98,4.15,0,9.02-3.67,14.09-8.78,1.48-1.52,2.27-2.27,2.47-2.27.04,0,.04.04.04.08,0,.48-.28.24-.28,3.19,0,.8.04,1.52.12,1.96.72,3.31,3.15,5.95,6.58,7.02.56.2,1.92.28,3.07.28,3.59,0,7.42-1.32,11.89-4.03,2.12-1.27,5.02-3.51,7.13-5.34-.06.49-.1.96-.1,1.43,0,3.43,1.99,6.66,5.87,6.66,2.47,0,4.87-1.08,8.9-5.11,2.87-2.87,4.91-5.75,5.07-5.75v.12c0,.36-.4,1.72-.4,4.11,0,1.64.08,2.27.48,3.31.76,1.92,2.67,4.59,6.7,4.59,5.34,0,10.57-4.37,15.91-9.37-.12.82-.18,1.63-.18,2.42,0,2.87,2.47,5.67,5.31,6.7.44.16,1.16.24,2.16.24h.6c4.35-.16,9.1-3.59,12.29-8.5,1.52-2.24,1.04-2.24,1.92-2.24,1.04,0,2.11.2,3.67.2,3.83,0,11.49-1.52,11.49-2.27ZM216.01,97.3c-1.4,2.16-2.35,3.23-5.79,6.38-6.03,5.59-10.34,8.18-12.89,8.18-1.16,0-1.6-.52-2.39-1.24v-2.11c0-2.04.04-2.2.92-4.03,3.15-6.51,8.82-10.61,14.53-10.61,2.39,0,4.23.92,6.54,1.99l-.92,1.44ZM260.31,102.44c-5.27,6.27-9.54,9.62-12.01,9.62-1.08,0-1.6-.68-1.6-2.07,0-5.95,8.22-14.81,12.45-14.81.84,0,4.83,1.12,4.83,2.04,0,.6-.96,2-3.67,5.23ZM299.54,109.59c-3.07,2.63-5.55,3.27-7.1,3.27-1.32,0-2.39-1.28-2.39-3.11,0-3.43,2.63-7.66,6.74-11.61l.64,1.16c1.88,3.35,6.38,4.59,6.38,4.79,0,.64-2.75,4.23-4.27,5.51ZM305.17,101.61c-.24.6-.56,1.08-.68,1.08-.52,0-3.07-1.56-3.83-2.31-.96-.96-1.68-2.27-1.68-3.19,0-1.24,2.35-1.96,2.35-3.11,0-.4-.32-.56-.32-.72,0-.28.96-.76,1.8-.76,1.84,0,3.47,1.88,3.47,4.39,0,1.12-.52,3.31-1.12,4.63Z"/>
      <path class="cls-2" d="M379.12,49.21c-1.52,0-2.16.36-2.99,1.68-.48.68-9.42,12.01-9.42,13.89,0,.68.28.4.28.6,0,.28-.72,1.52-1.64,2.99-14.13,22.31-27.89,45.41-38.63,67.08-5.35,10.78-6.34,14.17-6.34,15.24,0,.36.16.52.56.88.44.36.96.56,1.52.56,1.92,0,2.67-.4,13.65-20.35,24.22-44.02,45.29-73.27,45.93-79.69.04-.24.04-.44.04-.6,0-.6-.2-.8-.8-1.4-.76-.8-1-.88-2.16-.88Z"/>
      <path class="cls-6" d="M440.63,103.16c-.16-.16-.36-.32-.48-.32s-1.36.96-2.79,2.08c-7.46,5.91-13.41,8.22-17.44,8.22-2.87,0-4.51-1.72-4.51-4.55s1.56-6.7,4.63-11.45c1.8-2.75,2.32-3.67,2.32-4.31,0-1.04-1.4-2-2.63-2-1.92,0-3.19,1.28-5.47,3.47-2.83-3.07-4.83-4.55-9.58-4.55-1.12,0-2.31.12-3.55.36-7.98,1.52-15.2,8.98-15.2,15.92,0,4.31,1.96,7.98,6.9,7.98,4.15,0,9.02-3.67,14.09-8.78,1.48-1.52,2.27-2.27,2.47-2.27.04,0,.04.04.04.08,0,.48-.28.24-.28,3.19,0,.8.04,1.52.12,1.96.72,3.31,3.15,5.95,6.58,7.02.56.2,1.92.28,3.07.28,3.59,0,7.42-1.32,11.89-4.03,3.71-2.24,9.86-7.42,9.86-8.22l-.04-.08ZM412.01,97.3c-1.4,2.16-2.35,3.23-5.79,6.38-6.03,5.59-10.34,8.18-12.89,8.18-1.16,0-1.6-.52-2.39-1.24v-2.11c0-2.04.04-2.2.92-4.03,3.15-6.51,8.82-10.61,14.53-10.61,2.39,0,4.23.92,6.54,1.99l-.92,1.44Z"/>
    </g>
    <text class="cls-18" transform="translate(0 167.36) scale(.96 1)"><tspan x="0" y="0">He</tspan><tspan class="cls-15" x="39.97" y="0"> </tspan><tspan x="76.16" y="0">cprdido</tspan><tspan class="cls-5" x="275.83" y="0"> </tspan><tspan x="312.03" y="0">que</tspan><tspan class="cls-15" x="366.58" y="0"> </tspan><tspan class="cls-4" x="402.77" y="0">t </tspan></text>
    <text class="cls-18" transform="translate(0 205.73) scale(.96 1)"><tspan x="0" y="0">cca</tspan><tspan class="cls-15" x="88.09" y="0"> </tspan><tspan x="124.29" y="0">a</tspan><tspan class="cls-15" x="141.41" y="0"> </tspan><tspan x="177.61" y="0">las</tspan><tspan class="cls-15" x="217.05" y="0"> </tspan><tspan class="cls-1" x="253.25" y="0">psas</tspan><tspan class="cls-15" x="391.67" y="0"> </tspan><tspan x="427.86" y="0">que </tspan></text>
    <text class="cls-18" transform="translate(0 244.09) scale(.96 1)"><tspan x="0" y="0">quio</tspan><tspan class="cls-7" x="98.04" y="0"> </tspan><tspan class="cls-4" x="116.96" y="0">baﬆa</tspan><tspan class="cls-9" x="194.51" y="0"> </tspan><tspan class="cls-1" x="213.43" y="0">pa</tspan><tspan class="cls-9" x="283.76" y="0"> </tspan><tspan x="302.68" y="0">s</tspan><tspan class="cls-7" x="353.38" y="0"> </tspan><tspan class="cls-4" x="372.3" y="0">feliz.</tspan><tspan class="cls-21" x="436.42" y="0"> </tspan><tspan x="455.34" y="0">El </tspan></text>
    <text class="cls-18" transform="translate(0 282.45) scale(.96 1)"><tspan x="0" y="0">tipo</tspan><tspan class="cls-19" x="100.32" y="0"> </tspan><tspan class="cls-1" x="133.04" y="0">seguirá</tspan><tspan class="cls-19" x="243.79" y="0"> </tspan><tspan class="cls-1" x="276.5" y="0">su</tspan><tspan class="cls-22" x="310.87" y="0"> </tspan><tspan class="cls-4" x="343.58" y="0">cso</tspan><tspan class="cls-11" x="433.02" y="0"> </tspan><tspan x="465.74" y="0">y </tspan></text>
    <text class="cls-18" transform="translate(0 320.82) scale(.96 1)"><tspan x="0" y="0">eﬆas</tspan><tspan class="cls-10" x="75.42" y="0"> </tspan><tspan class="cls-1" x="110.6" y="0">pals</tspan><tspan class="cls-10" x="231" y="0"> </tspan><tspan x="266.18" y="0">se</tspan><tspan class="cls-10" x="299.87" y="0"> </tspan><tspan x="335.06" y="0">pdán, </tspan></text>
    <text class="cls-18" transform="translate(0 359.18) scale(.96 1)"><tspan x="0" y="0">po</tspan><tspan class="cls-20" x="72.87" y="0"> </tspan><tspan x="116.92" y="0">el</tspan><tspan class="cls-20" x="141.67" y="0"> </tspan><tspan class="cls-4" x="185.72" y="0">recudo</tspan><tspan class="cls-20" x="330.61" y="0"> </tspan><tspan class="cls-4" x="374.65" y="0">de</tspan><tspan class="cls-13" x="410.74" y="0"> </tspan><tspan class="cls-1" x="454.78" y="0">tu </tspan></text>
    <text class="cls-18" transform="translate(0 397.54) scale(.96 1)"><tspan x="0" y="0">prescia</tspan><tspan class="cls-12" x="146.94" y="0"> </tspan><tspan x="166.46" y="0">eﬆa</tspan><tspan class="cls-12" x="226.25" y="0"> </tspan><tspan x="245.77" y="0">noe</tspan><tspan class="cls-12" x="338.27" y="0"> </tspan><tspan x="357.79" y="0">quedá </tspan></text>
    <text class="cls-18" transform="translate(59.61 435.91) scale(.96 1)"><tspan x="0" y="0">cmigo pa pre.</tspan></text>
    <text class="cls-17" transform="translate(187.59 37.39) scale(.96 1)"><tspan x="0" y="0">Eﬆás</tspan></text>
  </g>
</svg>