<?xml version="1.0" encoding="UTF-8"?>
<svg id="Capa_2" data-name="Capa 2" xmlns="http://www.w3.org/2000/svg" xmlns:xlink="http://www.w3.org/1999/xlink" viewBox="0 0 624.55 336.73">
  <defs>
    <style>
      .cls-1 {
        fill: url(#Degradado_sin_nombre_71-2);
      }

      .cls-2 {
        fill: url(#Degradado_sin_nombre_71-6);
      }

      .cls-3 {
        letter-spacing: -.02em;
      }

      .cls-4 {
        fill: url(#Degradado_sin_nombre_71-11);
      }

      .cls-5 {
        fill: url(#Degradado_sin_nombre_71);
      }

      .cls-6 {
        fill: url(#Degradado_sin_nombre_71-7);
      }

      .cls-7 {
        fill: url(#Degradado_sin_nombre_71-5);
      }

      .cls-8 {
        letter-spacing: 0em;
      }

      .cls-9 {
        fill: url(#Degradado_sin_nombre_71-12);
      }

      .cls-10 {
        fill: #000100;
        font-family: WastedVindeyRegular, 'Wasted Vindey';
        font-size: 60px;
      }

      .cls-11 {
        fill: url(#Degradado_sin_nombre_71-9);
      }

      .cls-12 {
        fill: url(#Degradado_sin_nombre_71-10);
      }

      .cls-13 {
        fill: url(#Degradado_sin_nombre_71-4);
      }

      .cls-14 {
        fill: url(#Degradado_sin_nombre_71-3);
      }

      .cls-15 {
        fill: url(#Degradado_sin_nombre_71-8);
      }
    </style>
    <linearGradient id="Degradado_sin_nombre_71" data-name="Degradado sin nombre 71" x1="-47.55" y1="109.13" x2="739.17" y2="215.45" gradientUnits="userSpaceOnUse">
      <stop offset="0" stop-color="#e3ad17"/>
      <stop offset="1" stop-color="#997314"/>
    </linearGradient>
    <linearGradient id="Degradado_sin_nombre_71-2" data-name="Degradado sin nombre 71" x1="-43.5" y1="79.23" x2="743.21" y2="185.54" xlink:href="#Degradado_sin_nombre_71"/>
    <linearGradient id="Degradado_sin_nombre_71-3" data-name="Degradado sin nombre 71" x1="-44.65" y1="87.67" x2="742.07" y2="193.99" xlink:href="#Degradado_sin_nombre_71"/>
    <linearGradient id="Degradado_sin_nombre_71-4" data-name="Degradado sin nombre 71" x1="-44.87" y1="89.32" x2="741.85" y2="195.63" xlink:href="#Degradado_sin_nombre_71"/>
    <linearGradient id="Degradado_sin_nombre_71-5" data-name="Degradado sin nombre 71" x1="-39.44" y1="49.12" x2="747.28" y2="155.43" xlink:href="#Degradado_sin_nombre_71"/>
    <linearGradient id="Degradado_sin_nombre_71-6" data-name="Degradado sin nombre 71" x1="-36" y1="23.67" x2="750.72" y2="129.98" xlink:href="#Degradado_sin_nombre_71"/>
    <linearGradient id="Degradado_sin_nombre_71-7" data-name="Degradado sin nombre 71" x1="-61.91" y1="215.47" x2="724.8" y2="321.78" xlink:href="#Degradado_sin_nombre_71"/>
    <linearGradient id="Degradado_sin_nombre_71-8" data-name="Degradado sin nombre 71" x1="-57.69" y1="184.19" x2="729.03" y2="290.51" xlink:href="#Degradado_sin_nombre_71"/>
    <linearGradient id="Degradado_sin_nombre_71-9" data-name="Degradado sin nombre 71" x1="-58.59" y1="190.88" x2="728.12" y2="297.19" xlink:href="#Degradado_sin_nombre_71"/>
    <linearGradient id="Degradado_sin_nombre_71-10" data-name="Degradado sin nombre 71" x1="-57.09" y1="179.8" x2="729.62" y2="286.11" xlink:href="#Degradado_sin_nombre_71"/>
    <linearGradient id="Degradado_sin_nombre_71-11" data-name="Degradado sin nombre 71" x1="-52.73" y1="147.51" x2="733.98" y2="253.82" xlink:href="#Degradado_sin_nombre_71"/>
    <linearGradient id="Degradado_sin_nombre_71-12" data-name="Degradado sin nombre 71" x1="-54.02" y1="157.02" x2="732.7" y2="263.34" xlink:href="#Degradado_sin_nombre_71"/>
  </defs>
  <g id="Capa_1-2" data-name="Capa 1">
    <text class="cls-10" transform="translate(70.2 51)"><tspan x="0" y="0">La ﬁeﬆa sá  la</tspan></text>
    <text class="cls-10" transform="translate(137.59 320.29)"><tspan x="0" y="0">A las </tspan><tspan class="cls-3" x="149.82" y="0">2</tspan><tspan class="cls-8" x="178.44" y="0">0:00 hs</tspan></text>
    <g>
      <path class="cls-5" d="M43.42,165.71c3.57,3.44,7.36,5.12,12.91,5.68.77.09,1.63.13,2.5.13,6.75,0,15.83-2.41,23.88-6.45,9.03-4.47,19.28-11.96,24.05-17.51.9-1.08,1.68-2.02,1.68-2.11,0-.17-.39-.73-.86-.73-.6,0-1.46.65-3.23,2.24-15.7,14.16-32.14,21.51-44.62,21.51-5.77,0-9.34-1.16-12.31-4.17-3.23-3.27-5.2-7.83-5.2-14.67,0-20.18,20.61-50.38,41.78-60.84,4.77-2.37,8.95-3.53,12.87-3.53,7.57,0,14.37,4.35,16.44,10.28.52,1.51.99,2.19,1.59,2.19.65,0,1.12-.77,1.12-2.15,0-2.07-1.29-4.99-3.31-7.44-4.09-4.95-10.63-7.74-17.9-7.74-24.95,0-53.87,33.17-58.26,60.28-.26,1.51-.39,3.66-.39,5.77,0,10.67,3.96,16.09,7.27,19.28Z"/>
      <path class="cls-1" d="M178.45,128.87c0,5.81,3.4,8.39,6.24,9.25.73.26,1.38.34,2.02.34,2.8,0,7.92-2.07,11.96-5.46,3.18-2.63,8.69-7.96,8.69-8.39,0-.17-.3-.17-.3-.17-.43,0-1.38.73-3.79,2.88-7.79,6.88-12.05,8.95-15.7,8.95-1.98,0-3.44-1.21-3.44-3.74,0-2.32.34-5.94,4.17-11.7,1.25-1.89,1.72-2.75,1.72-3.4,0-1.29-1.76-2.24-3.01-2.24-2.15,0-4.48,2.15-6.63,6.28-.82,1.59-1.55,2.41-4.69,5.59-5.89,5.85-9.77,8.43-12.82,8.43-2.54,0-2.84-1.29-2.84-3.18,0-3.49,2.49-9.81,8.26-15.83,1.07-1.08,1.93-2.15,1.93-2.37,0-.56-.82-1.76-2.58-1.76-4.31,0-10.63,7.03-12.51,13.92-2.92,2.58-7.4,6.69-10.85,8.41-1.68.82-3.61,1.38-4.91,1.38-1.68,0-2.84-1.38-2.84-3.27,0-1.59.52-4.13,1.46-6.93,2.75-7.87,3.1-9.25,3.1-10.89,0-2.54-1.38-5.29-4.65-5.29-2.93,0-8.78,2.75-13.51,6.41-1.85,1.42-2.49,1.89-2.62,1.89v-.09c.73-1.25,11.57-18.72,15.15-24.4,11.66-18.54,14.8-24.01,14.8-25.51,0-1.64-2.45-2.24-3.23-2.24-1.68,0-2.24.65-3.7,2.62-5.81,8.35-20.91,34.29-31.15,51.5-8.73,14.72-8.78,15.49-8.78,17.47,0,.52.09.65.47.9.21.17.47.22.73.22,1.59,0,3.7-1.89,9.72-11.1,2.58-3.83,3.18-4.6,4.95-6.15,6.41-5.55,12.61-8.78,15.36-8.78.3,0,.39.04.39.34,0,.99-3.83,10.11-3.83,15.71,0,5.89,3.27,9.21,7.53,9.21,3.14,0,6.97-1.72,10.93-4.95,1.15-.94,3.26-2.91,5.09-4.7-.11.69-.18,1.37-.18,2.03,0,4.69,2.93,7.79,7.19,7.83,4.99,0,8.56-3.05,16.69-11.4v2.37Z"/>
      <path class="cls-14" d="M212.74,138.13c.78.22,1.59.34,2.5.34,4.86,0,12-3.49,22.55-11.06,2.67-1.89,3.48-2.54,3.48-2.88,0-.17-.26-.3-.56-.3-.17,0-.13,0-4.21,2.75-10.76,7.19-16.39,9.55-20.44,9.55-1.98,0-2.92-.52-2.92-1.63,0-1.59,1.46-3.92,7.06-9.64,3.49-3.57,4.99-5.68,4.99-7.23,0-1.64-1.93-2.88-3.91-2.97-.52,0-.99-.04-.99-.09,0-.13,3.74-3.05,3.74-4.99,0-1.21-1.03-2.11-2.88-2.11-3.1,0-5.46,4.22-5.59,4.52-.21.56-.34,1.08-.34,1.51,0,3.31,4.04,2.28,4.04,3.01,0,.13-1.29,1.51-2.88,3.01-5.55,5.21-7.87,8.86-7.87,12.43,0,2.8,1.55,4.9,4.26,5.77Z"/>
      <path class="cls-13" d="M389.69,130.08c0,4.69,2.93,7.79,7.19,7.83,4.99,0,8.56-3.05,16.69-11.4v2.37c0,5.81,3.4,8.39,6.24,9.25.73.26,1.38.34,2.02.34,2.8,0,7.92-2.07,11.96-5.46,1.65-1.36,3.91-3.44,5.72-5.19.34,5.6,5.32,9.37,11.63,9.37,4.13,0,8.99-1.46,15.23-5.98,3.92-2.8,7.53-5.85,7.53-6.37,0-.26-.3-.34-.39-.34-.39,0-1.12.47-2.45,1.55-6.54,5.16-13.42,8.99-18.33,8.99-4,0-7.49-1.64-7.49-5.68,0-1.59.43-3.61.77-3.7,6.54-1.55,11.4-6.41,11.4-10.58,0-2.93-2.24-4.22-4.91-4.22-5.91,0-12.49,8.27-12.99,15.48-.34.3-.71.62-1.13,1-7.79,6.88-12.05,8.95-15.71,8.95-1.98,0-3.44-1.21-3.44-3.74,0-2.32.34-5.94,4.17-11.7,1.25-1.89,1.72-2.75,1.72-3.4,0-1.29-1.76-2.24-3.01-2.24-2.15,0-4.48,2.15-6.63,6.28-.82,1.59-1.55,2.41-4.69,5.59-5.89,5.85-9.77,8.43-12.82,8.43-2.54,0-2.84-1.29-2.84-3.18,0-3.49,2.5-9.81,8.26-15.83,1.08-1.08,1.94-2.15,1.94-2.37,0-.56-.82-1.76-2.58-1.76-4.3,0-10.6,6.99-12.5,13.87-5.7,3.68-16.44,9.86-21.24,12.29-2.32,1.16-6.76,3.14-7.1,3.14,0-.04,2.02-2.67,4.56-5.81,9.81-12.13,15.06-19.45,15.06-20.39,0-1.16-.82-1.94-2.15-1.94-1.63,0-1.94.26-6.8,6.02-9.29,11.06-16.82,16.31-19.06,16.31-.77,0-.95-.69-.95-2.28,0-1.94.39-3.53,1.33-5.55,2.75-5.77,11.01-12.56,13.34-12.56.26,0,.56.04.95.17,1.85.47,3.31,2.67,4.17,2.67.43,0,.73-.47.73-1.16,0-1.38-1.25-3.61-2.71-4.65-1.25-.86-3.1-1.46-4.65-1.46-5.47,0-13.33,5.91-16.65,13.03-3.2.18-9.2.99-14.8,2.15-3.05-1.98-6.24-3.14-6.28-3.18v-.04c0-.69,8.6-8.22,11.32-8.22,1.2,0,1.59.3,2.07.3.86,0,1.55-1.03,1.55-2.07,0-2.07-2.45-3.87-5.51-3.87-6.19,0-15.23,7.19-15.23,12.22,0,1.96,1.16,3.15,5.21,4.85-.35.27-.73.57-1.13.88-8.05,6.37-14.46,8.86-18.8,8.86-3.1,0-4.86-1.85-4.86-4.91s1.68-7.23,4.99-12.35c1.94-2.97,2.5-3.96,2.5-4.65,0-1.12-1.51-2.15-2.84-2.15-2.07,0-3.44,1.38-5.89,3.74-3.06-3.31-5.21-4.91-10.33-4.91-1.2,0-2.49.13-3.83.39-7.75,1.47-14.82,8.15-16.15,14.93-.41.27-.87.58-1.41.95-10.76,7.19-16.39,9.55-20.44,9.55-1.98,0-2.92-.52-2.92-1.63,0-1.59,1.46-3.92,7.06-9.64,3.49-3.57,4.99-5.68,4.99-7.23,0-1.64-1.94-2.88-3.91-2.97-.52,0-.99-.04-.99-.09,0-.13,3.74-3.05,3.74-4.99,0-1.21-1.03-2.11-2.88-2.11-3.1,0-5.46,4.22-5.59,4.52-.21.56-.34,1.08-.34,1.51,0,3.31,4.04,2.28,4.04,3.01,0,.13-1.29,1.51-2.88,3.01-5.55,5.21-7.87,8.86-7.87,12.43,0,2.8,1.55,4.9,4.26,5.77.78.22,1.59.34,2.5.34,4.85,0,11.97-3.47,22.47-11-.02.27-.05.54-.05.81,0,4.65,2.11,8.61,7.44,8.61,4.47,0,9.72-3.96,15.19-9.47,1.59-1.64,2.45-2.45,2.67-2.45.04,0,.04.04.04.09,0,.52-.3.26-.3,3.44,0,.86.04,1.63.13,2.11.77,3.57,3.4,6.41,7.1,7.57.6.22,2.07.3,3.31.3,3.63,0,7.49-1.26,11.92-3.82-.06.2-.12.41-.12.6,0,1.59,1.03,3.23,6.45,3.23,8.09,0,11.49-4.65,11.49-7.79,0-2.75-.77-2.24-.77-3.18,0-.73,8.75-1.84,13.31-2.51-.74,1.83-1.17,3.72-1.17,5.6,0,5.85,3.36,7.57,5.51,7.57,2.71,0,6.02-2.84,6.5-2.84h.04l-.04.09c-3.53,4.17-11.44,14.41-15.06,19.53-9.98,13.94-14.59,22.5-14.93,27.67-.04.56-.09.99-.09,1.29,0,1.12,1.2,2.02,2.06,2.02,1.25,0,2.93-1.46,6.11-5.08,14.8-16.82,21.64-28.27,21.64-32.31,0-.86-.22-1.08-1.08-2.32,1.25-1.59,1.94-2.5,2.88-2.88,3.18-1.03,9.38-4.05,15.92-7.79,3.49-1.99,9.37-5.66,12.97-8.04-.17.87-.28,1.73-.28,2.57ZM448.77,119.62c1.81-2.71,4.6-4.95,5.21-4.95.39,0,1.03.82,1.03,1.76,0,2.15-2.54,5.12-6.2,6.93-1.16.56-2.24.99-2.37.99-.04,0-.04-.04-.04-.09,0-.52,1.2-2.93,2.36-4.65ZM298.98,118.85c-1.51,2.32-2.54,3.48-6.24,6.88-6.5,6.02-11.14,8.82-13.9,8.82-1.25,0-1.72-.56-2.58-1.33v-2.28c0-2.19.04-2.37.99-4.35,3.4-7.01,9.51-11.44,15.66-11.44,2.58,0,4.56.99,7.06,2.15l-.99,1.55ZM329.79,127.37v.04c-.09.09-.73.34-1.42.56-.58.18-1.13.39-1.67.59.78-.67,1.47-1.3,2-1.82.65.3,1.09.57,1.09.63ZM330.52,131.37c-1.38,2.71-5.33,4.56-8.52,4.56-1.46,0-1.94-.52-1.98-.82,0-.17.13-.34.34-.77,1.21-2.37,9.16-5.68,10.41-5.68h.09c.04.09.08.26.08.52,0,.65-.17,1.68-.43,2.19ZM356.47,153.18c-3.01,6.02-9.47,14.67-18.5,24.78-2.49,2.84-4.04,4.43-4.3,4.43t-.04-.04c0-.43,2.15-4.43,3.87-7.18,6.02-9.59,18.98-27.62,19.97-27.62.3,0,.47.82.47,1.21,0,.99-.52,2.45-1.46,4.43Z"/>
      <path class="cls-7" d="M478.89,138.13c.78.22,1.59.34,2.5.34,4.86,0,11.99-3.48,22.52-11.04-.14.85-.23,1.71-.23,2.56,0,2.41.04,2.8.6,3.92.99,2.07,2.63,3.49,4.78,4.17.9.3,1.81.43,2.75.43,3.4,0,7.27-1.89,12.13-5.85,1.19-.96,3.51-3.14,5.46-5.07-.01.23-.04.45-.04.68,0,4.65,2.11,8.61,7.44,8.61,4.47,0,9.72-3.96,15.19-9.47,1.59-1.64,2.45-2.45,2.67-2.45.04,0,.04.04.04.09,0,.52-.3.26-.3,3.44,0,.86.04,1.63.13,2.11.77,3.57,3.4,6.41,7.1,7.57.6.22,2.07.3,3.31.3,3.87,0,8-1.42,12.82-4.35,4-2.41,10.63-8,10.63-8.86l-.04-.09c-.17-.17-.39-.34-.52-.34s-1.46,1.03-3.01,2.24c-8.05,6.37-14.46,8.86-18.8,8.86-3.1,0-4.86-1.85-4.86-4.91s1.68-7.23,4.99-12.35c1.94-2.97,2.5-3.96,2.5-4.65,0-1.12-1.51-2.15-2.84-2.15-2.07,0-3.44,1.38-5.89,3.74-3.06-3.31-5.21-4.91-10.33-4.91-1.2,0-2.49.13-3.83.39-7.66,1.46-14.66,7.99-16.11,14.7-4.08,3.64-11.58,10.6-16.85,10.6-2.93,0-3.87-1.46-3.87-3.7,0-3.14,1.16-7.06,5.16-13.17,1.85-2.8,2.19-3.48,2.19-4.17,0-1.03-1.29-1.76-2.62-1.76-2.61,0-7.78,5.7-9.44,12.32-.45.3-.95.64-1.58,1.06-10.76,7.19-16.39,9.55-20.44,9.55-1.98,0-2.92-.52-2.92-1.63,0-1.59,1.46-3.92,7.06-9.64,3.49-3.57,4.99-5.68,4.99-7.23,0-1.64-1.93-2.88-3.91-2.97-.52,0-.99-.04-.99-.09,0-.13,3.74-3.05,3.74-4.99,0-1.21-1.03-2.11-2.88-2.11-3.1,0-5.46,4.22-5.59,4.52-.21.56-.34,1.08-.34,1.51,0,3.31,4.04,2.28,4.04,3.01,0,.13-1.29,1.51-2.88,3.01-5.55,5.21-7.87,8.86-7.87,12.43,0,2.8,1.55,4.9,4.26,5.77ZM534.79,130.94c0-2.19.04-2.37.99-4.35,3.4-7.01,9.51-11.44,15.66-11.44,2.58,0,4.56.99,7.06,2.15l-.99,1.55c-1.51,2.32-2.54,3.48-6.24,6.88-6.5,6.02-11.14,8.82-13.9,8.82-1.25,0-1.72-.56-2.58-1.33v-2.28Z"/>
      <path class="cls-2" d="M515.77,107.58c.65.3,1.25.43,1.85.43,1.68,0,3.31-1.12,5.42-3.66,2.8-3.31,7.62-9.04,7.62-11.14,0-1.72-2.02-3.01-3.83-3.01-.86,0-1.68.26-2.45.82-1.64,1.16-9.34,10.02-10.41,11.96-.21.43-.39,1.16-.39,1.72,0,1.16.82,2.24,2.19,2.88Z"/>
      <path class="cls-6" d="M81.02,190.83c0-4.34-3.05-7.49-9.16-7.49-9.98,0-28.87,8.3-45.74,20.35C9.29,215.74,0,226.71,0,234.41c0,2.88,1.16,5.08,3.74,7.01,3.05,2.28,6.88,3.53,18.03,5.81,8.95,1.81,13.38,2.88,16.82,4.09,7.36,2.54,11.4,6.15,11.4,9.98,0,7.44-13.3,12.26-26.42,12.26-3.61,0-6.33-.39-9.34-1.25-2.75-.78-9.98-4.39-11.53-5.77-.77-.69-1.33-1.03-1.76-1.03-.3,0-.73.26-.73.64,0,.82,6.62,9.25,21.73,10.97.47.04,2.8.13,5.03.13,13.3,0,24.44-4.43,27.75-11.44.73-1.46.82-1.76.82-3.79s-.09-2.32-.86-3.96c-2.58-5.42-8.69-9.51-27.06-13.04-17.43-3.44-22.46-5.33-22.46-9.51,0-6.88,14.76-21.34,35.2-33.56,12.65-7.57,26.72-13.34,32.48-13.34,1.72,0,1.89.3,1.89,3.05,0,4.56-2.88,10.24-8.22,20.01-2.24,4.17-2.71,5.16-2.71,5.55,0,.6.9,1.46,1.72,1.46.43,0,.9-.22,1.38-.73,3.7-3.96,11.53-17.12,13.25-22.29.56-1.72.86-3.36.86-4.86Z"/>
      <path class="cls-15" d="M163.13,173.14c-.65,0-1.29.17-1.94.56-2.71,1.55-13.64,15.27-21.94,27.45-9.89,14.51-14.72,23.64-16.07,30.61-.42.36-.92.79-1.5,1.31-7.79,6.88-12.05,8.95-15.7,8.95-1.98,0-3.44-1.21-3.44-3.74,0-2.32.34-5.94,4.17-11.7,1.25-1.89,1.72-2.75,1.72-3.4,0-1.29-1.76-2.24-3.01-2.24-2.15,0-4.48,2.15-6.63,6.28-.82,1.59-1.55,2.41-4.69,5.59-5.89,5.85-9.77,8.43-12.82,8.43-2.54,0-2.84-1.29-2.84-3.18,0-3.48,2.49-9.81,8.26-15.83,1.07-1.08,1.93-2.15,1.93-2.37,0-.56-.82-1.76-2.58-1.76-5.12,0-13.08,9.9-13.08,17.73,0,4.69,2.93,7.79,7.19,7.83,4.99,0,8.56-3.05,16.69-11.4v2.37c0,5.81,3.4,8.39,6.24,9.25.73.26,1.38.34,2.02.34,2.8,0,7.92-2.06,11.96-5.46,1.68-1.39,4.01-3.53,5.84-5.31-.09.79-.15,1.56-.15,2.3,0,2.75.04,3.1.6,4.26,1.12,2.41,2.84,3.83,4.99,4.13.39.04.82.09,1.25.09,3.48,0,7.79-2.02,12.78-5.98,3.7-2.93,10.46-8.95,10.46-9.34,0-.17-.17-.39-.34-.39-.6,0-11.14,9.59-16.91,12.26-2.19,1.03-3.92,1.55-5.16,1.55-1.85,0-2.93-.95-2.93-3.74,0-10.8,16.05-34.42,36.31-60.37,1.33-1.72,1.85-2.62,1.85-3.23,0-1.08-1.59-1.85-2.54-1.85Z"/>
      <path class="cls-11" d="M290.75,250.25h-.09c-.34,0-.77.6-2.19,3.1-6.5,11.44-11.1,17.69-16.95,20.4-1.63.82-1.94.86-3.87.86-2.45,0-3.36-.39-5.08-2.11-3.4-3.4-4.73-7.96-4.73-16.01,0-5.16.73-10.63,2.28-17.86.47-2.02.65-3.18.82-3.18.56,0,4.39,1.12,6.28,1.89,5.72,2.28,5.9,4.99,6.54,4.99.39,0,.56-.21.56-.6,0-1.12-1.46-3.44-3.4-4.99-3.31-2.71-9.16-4.22-9.16-4.77,0-.73,3.27-11.49,5.34-17.64,6.97-20.48,7.14-21.99,7.14-25.69,0-3.36-2.02-4.6-4.17-4.6-6.88,0-19.06,13.85-43.24,43.85l-5.98.17c-15.66.35-28.23,4.09-28.23,8.56,0,1.68,1.85,3.31,3.4,3.31.39,0,.86-.21.86-.39,0-.3-1.38-.9-1.38-1.63,0-1.25,4.26-2.93,8.82-3.92,4.43-.95,12.31-1.81,16.35-1.81,1.2,0,1.55.04,2.67.09-10.97,13.08-18.76,21.94-26.07,28.7-9.72,8.99-11.7,10.28-15.83,10.5-2.58.08-3.01.26-3.01,1.16,0,1.33,1.76,2.07,4.13,2.07,4.9,0,9.12-1.77,23.41-16.31,7.87-8,11.44-12.22,23.02-26.33,10.28.39,23.97,1.38,24.57,1.98v.04c0,1.03-2.41,10.02-2.41,19.54,0,5.16.73,9.16,2.28,13.21,1.89,4.99,6.24,10.46,13.34,10.46,1.25,0,2.49-.13,3.35-.39,5.12-1.51,9.59-5.72,14.5-13.68,2.97-4.69,6.62-11.88,6.62-12.48,0-.3-.17-.43-.47-.47ZM254.82,229.51c-.17.52-.35.95-.43.95-9.81-1.85-18.8-2.06-22.07-2.62,15.49-19.28,20.39-25.52,28.31-33.47,3.87-3.87,7.27-6.67,8.05-6.67.09,0,.17.04.17.22,0,.77-.77,3.74-1.76,6.71-2.11,6.5-8.6,21-12.26,34.89Z"/>
      <path class="cls-12" d="M376.35,230.24c-.39,0-1.12.47-2.45,1.55-6.54,5.16-13.42,8.99-18.33,8.99-4,0-7.49-1.63-7.49-5.68,0-1.59.43-3.61.77-3.7,6.54-1.55,11.4-6.41,11.4-10.58,0-2.93-2.24-4.22-4.91-4.22-5.94,0-12.55,8.35-12.99,15.59-.48.42-1.04.91-1.69,1.5-8.43,7.7-10.76,8-13.6,8-2.11,0-3.1-1.38-3.1-3.49,0-1.98.39-3.66,2.97-9.51,1.46-3.18,2.24-5.68,2.24-6.75,0-1.38-.77-4.13-4.39-4.13-2.58.04-6.71,2.54-11.49,6.97-1.38,1.25-2.5,2.28-2.54,2.28,0-.08,1.12-2.67,1.12-4.6,0-3.01-1.94-4.47-4.43-4.47-4.09,0-11.14,5.89-11.45,5.89,0-.39,3.4-3.74,3.4-5.29,0-1.68-1.59-2.8-3.79-2.8-5.51,0-18.2,20.78-18.2,26.12,0,.82.52,2.02.99,2.19.13.09.56.13.86.13,1.94,0,8.26-10.76,15.49-17.21,6.07-5.46,9.9-6.58,11.36-6.58.35,0,.43.13.43.47,0,2.02-3.1,8.35-3.57,10.5-.21.9-.3,1.68-.3,2.28,0,1.33.43,2.02,1.33,2.02.56,0,1.2-.56,3.74-3.31,9.16-9.77,13.38-11.75,14.84-11.75.13,0,.17.04.17.13,0,.6-4.34,8.82-4.34,13.64s3.23,9.21,8.39,9.21c3.66,0,7.49-2.15,12.95-7.4,1.07-1.03,1.91-1.84,2.59-2.5.42,5.51,5.37,9.22,11.62,9.22,4.13,0,8.99-1.46,15.23-5.98,3.92-2.8,7.53-5.85,7.53-6.37,0-.26-.3-.35-.39-.35ZM351.61,225.38c1.81-2.71,4.6-4.95,5.21-4.95.39,0,1.03.82,1.03,1.76,0,2.15-2.54,5.12-6.2,6.93-1.16.56-2.24.99-2.37.99-.04,0-.04-.04-.04-.09,0-.52,1.2-2.93,2.36-4.65Z"/>
      <path class="cls-4" d="M419.17,214.11c0,.47.22.86.56,1.12.3.17,1.03.34,1.63.34,2.15,0,5.42-4.26,5.42-5.85,0-1.03-1.25-1.72-2.32-1.72-1.94,0-5.29,4.04-5.29,6.11Z"/>
      <path class="cls-9" d="M624.51,230.93c-.17-.17-.39-.34-.52-.34s-1.46,1.03-3.01,2.24c-8.05,6.37-14.46,8.86-18.8,8.86-3.1,0-4.86-1.85-4.86-4.91s1.68-7.23,4.99-12.35c1.94-2.97,2.5-3.96,2.5-4.65,0-1.12-1.51-2.15-2.84-2.15-2.07,0-3.44,1.38-5.89,3.74-3.06-3.31-5.21-4.91-10.33-4.91-1.2,0-2.49.13-3.83.39-7.75,1.47-14.82,8.15-16.15,14.93-.64.48-1.38,1.06-2.31,1.85-7.1,5.89-11.96,8.56-15.71,8.56-1.2,0-1.51-.08-2.02-.6-.51-.52-.6-.82-.6-2.02,0-4.34,4.39-11.79,4.39-15.88,0-2.63-1.68-4.43-4.09-4.43-2.88,0-8.48,2.84-13.34,6.71-.95.73-1.81,1.38-1.89,1.38,0-.3,5.77-6.58,5.77-8.35,0-1.33-1.42-2.28-3.1-2.28-.77,0-1.63.21-2.41.73-1.12.73-4.56,4.48-6.88,7.49-2.02,2.61-3.75,5.07-5.11,7.3-.24.19-.48.38-.75.58-8.05,6.37-14.46,8.86-18.8,8.86-3.1,0-4.86-1.85-4.86-4.91s1.68-7.23,4.99-12.35c1.94-2.97,2.5-3.96,2.5-4.65,0-1.12-1.51-2.15-2.84-2.15-2.07,0-3.44,1.38-5.89,3.74-3.06-3.31-5.21-4.91-10.33-4.91-1.2,0-2.49.13-3.83.39-7.77,1.48-14.85,8.18-16.16,14.97-.28.21-.55.42-.88.69-6.62,5.34-12.39,8.99-18.2,8.99-4.04,0-5.42-2.88-5.42-5.12,0-.39.04-.82.13-1.42,1.12-6.97,10.2-13.68,12.26-13.68.51,0,.99.56,1.89.56s1.37-.69,1.37-1.89c0-1.68-1.68-3.27-4.3-3.27-7.98,0-15.4,7.33-16.91,14.77-4.07,3.63-11.61,10.66-16.91,10.66-2.93,0-3.87-1.46-3.87-3.7,0-3.14,1.16-7.06,5.16-13.17,1.85-2.8,2.19-3.48,2.19-4.17,0-1.03-1.29-1.76-2.62-1.76-2.63,0-7.86,5.78-9.48,12.47-.41.27-.87.59-1.41.95-10.76,7.18-16.39,9.55-20.44,9.55-1.98,0-2.92-.52-2.92-1.63,0-1.59,1.46-3.92,7.06-9.64,3.49-3.57,4.99-5.68,4.99-7.23,0-1.64-1.94-2.88-3.91-2.97-.52,0-.99-.04-.99-.09,0-.13,3.74-3.05,3.74-4.99,0-1.2-1.03-2.11-2.88-2.11-3.1,0-5.46,4.21-5.59,4.52-.21.56-.34,1.07-.34,1.51,0,3.31,4.04,2.28,4.04,3.01,0,.13-1.29,1.51-2.88,3.01-5.55,5.21-7.87,8.86-7.87,12.43,0,2.8,1.55,4.91,4.26,5.77.78.21,1.59.34,2.5.34,4.83,0,11.93-3.45,22.37-10.93-.12.8-.21,1.61-.21,2.42,0,2.41.04,2.79.6,3.91.99,2.07,2.62,3.48,4.77,4.17.9.3,1.81.43,2.75.43,3.4,0,7.27-1.89,12.13-5.85,1.2-.97,3.55-3.18,5.52-5.13-.02.3-.06.61-.06.91,0,4.99,3.27,8.56,7.62,9.85.52.17,1.33.22,2.24.22,4.99,0,9.25-2.11,13.21-4.82,1.52-1.04,4.71-3.67,7.08-5.77,0,.13-.02.26-.02.39,0,4.65,2.11,8.6,7.44,8.6,4.47,0,9.72-3.96,15.19-9.47,1.59-1.63,2.45-2.45,2.67-2.45.04,0,.04.04.04.09,0,.52-.3.26-.3,3.44,0,.86.04,1.63.13,2.11.77,3.57,3.4,6.41,7.1,7.57.6.21,2.07.3,3.31.3,3.87,0,8-1.42,12.82-4.35,1.75-1.05,4-2.72,5.98-4.33-1.07,2.18-1.68,4.06-1.68,5.49,0,1.2,1.08,1.85,1.98,1.85,1.51,0,9.72-10.76,16.26-15.96,4.69-3.79,9.16-5.77,10.93-5.77.09,0,.17,0,.21.04,0,.04.04.09.04.13,0,.69-4.69,10.07-4.69,15.1,0,2.84.51,4.13,2.15,5.76.86.86,1.68,1.42,2.45,1.68.69.21,1.46.34,2.28.34,3.31,0,7.7-1.81,12.18-5.12,2.31-1.68,4.95-4,6.8-5.77-.01.23-.04.46-.04.69,0,4.65,2.11,8.6,7.44,8.6,4.47,0,9.72-3.96,15.19-9.47,1.59-1.63,2.45-2.45,2.67-2.45.04,0,.04.04.04.09,0,.52-.3.26-.3,3.44,0,.86.04,1.63.13,2.11.77,3.57,3.4,6.41,7.1,7.57.6.21,2.07.3,3.31.3,3.87,0,8-1.42,12.82-4.35,4-2.41,10.63-8,10.63-8.86l-.04-.09ZM490.38,224.6c-1.51,2.32-2.54,3.48-6.24,6.88-6.5,6.02-11.14,8.82-13.9,8.82-1.25,0-1.72-.56-2.58-1.34v-2.28c0-2.19.04-2.36.99-4.34,3.4-7.01,9.51-11.44,15.66-11.44,2.58,0,4.56.99,7.06,2.15l-.99,1.55ZM593.66,224.6c-1.51,2.32-2.54,3.48-6.24,6.88-6.5,6.02-11.14,8.82-13.9,8.82-1.25,0-1.72-.56-2.58-1.34v-2.28c0-2.19.04-2.36.99-4.34,3.4-7.01,9.51-11.44,15.66-11.44,2.58,0,4.56.99,7.06,2.15l-.99,1.55Z"/>
    </g>
  </g>
</svg>