<?xml version="1.0" encoding="UTF-8"?>
<svg id="Capa_2" data-name="Capa 2" xmlns="http://www.w3.org/2000/svg" xmlns:xlink="http://www.w3.org/1999/xlink" viewBox="0 0 395.77 90.8">
  <defs>
    <style>
      .cls-1 {
        fill: url(#Degradado_sin_nombre_187-4);
      }

      .cls-2 {
        fill: url(#Degradado_sin_nombre_187-3);
      }

      .cls-3 {
        fill: url(#Degradado_sin_nombre_187);
      }

      .cls-4 {
        fill: url(#Degradado_sin_nombre_187-2);
      }
    </style>
    <linearGradient id="Degradado_sin_nombre_187" data-name="Degradado sin nombre 187" x1="-3.09" y1="44.78" x2="393.75" y2="46" gradientUnits="userSpaceOnUse">
      <stop offset="0" stop-color="#e3ad17"/>
      <stop offset="1" stop-color="#997314"/>
    </linearGradient>
    <linearGradient id="Degradado_sin_nombre_187-2" data-name="Degradado sin nombre 187" x1="-3.09" y1="44.89" x2="393.75" y2="46.11" xlink:href="#Degradado_sin_nombre_187"/>
    <linearGradient id="Degradado_sin_nombre_187-3" data-name="Degradado sin nombre 187" x1="-3.1" y1="49.28" x2="393.74" y2="50.5" xlink:href="#Degradado_sin_nombre_187"/>
    <linearGradient id="Degradado_sin_nombre_187-4" data-name="Degradado sin nombre 187" x1="-3.12" y1="54.43" x2="393.72" y2="55.65" xlink:href="#Degradado_sin_nombre_187"/>
  </defs>
  <g id="Capa_1-2" data-name="Capa 1">
    <g>
      <path class="cls-3" d="M350.37,0H45.4C20.33,0,0,20.33,0,45.4h0c0,25.07,20.33,45.4,45.4,45.4h304.97c25.07,0,45.4-20.33,45.4-45.4h0c0-25.07-20.33-45.4-45.4-45.4ZM298.11,31.41c.26-.62.57-1.13.93-1.52.43-.43.88-.65,1.37-.69.26,0,.51.05.74.15.03,0,.07.02.1.05.13.13.25.26.34.39.26.49.26,1.08,0,1.77-.23.59-.6,1.21-1.13,1.86-.72.85-1.5,1.52-2.35,2.01-.07.03-.13.05-.2.05-.26.03-.41-.08-.44-.34-.07-1.34.15-2.58.64-3.73ZM278.53,29.06c.49-.59,1.1-.88,1.82-.88s1.32.29,1.82.88c.49.59.74,1.28.74,2.06s-.25,1.47-.74,2.06c-.49.59-1.1.88-1.82.88s-1.32-.29-1.82-.88c-.46-.59-.69-1.28-.69-2.06s.23-1.47.69-2.06ZM199.96,29.06c.49-.59,1.1-.88,1.82-.88s1.32.29,1.82.88c.49.59.74,1.28.74,2.06s-.25,1.47-.74,2.06c-.49.59-1.1.88-1.82.88s-1.32-.29-1.82-.88c-.46-.59-.69-1.28-.69-2.06s.23-1.47.69-2.06ZM81.22,28.76h-1.03l-11.43,29.39s-.02.05-.05.05l-1.47,3.88-.05.05v.05h-.05v.05h-.05v.05h-.1v.05h-.29v-.05h-.1v-.05c-.07-.03-.1-.08-.1-.15l-13.94-33.32h-.64c-.26,0-.39-.13-.39-.39s.13-.39.39-.39h5.1c.26,0,.39.13.39.39s-.13.39-.39.39h-.44l11.78,28.22,10.99-28.22h-.69c-.26,0-.39-.13-.39-.39s.13-.39.39-.39h2.55c.26,0,.39.13.39.39s-.13.39-.39.39ZM111.79,62.33h-5.5c-.26,0-.39-.14-.39-.42s.13-.42.39-.42h.93v-5.69c.85-1.47,1.95-3.88,3.29-7.21l.39-.93v13.84h.88c.29,0,.44.14.44.42s-.15.42-.44.42ZM126.51,44.95c-.26.43-.64.67-1.13.74-.03.03-.08.05-.15.05h-.25c-.39-.03-.74-.23-1.03-.59v-.05c-.26-.33-.41-.8-.44-1.42-.03-.33-.03-.69,0-1.08.1-1.05-.15-1.9-.74-2.55-.62-.65-1.52-1.05-2.7-1.18-1.57-.13-3.04.15-4.42.83-1.7.82-2.99,2.18-3.88,4.07l-.05.15v.1c-.46.95-1.06,2.39-1.82,4.32-.46,1.15-.81,2-1.06,2.58-.25.57-.61,1.36-1.08,2.36-.47,1-.89,1.78-1.25,2.33-.36.56-.83,1.21-1.4,1.96-.57.75-1.15,1.35-1.72,1.79-.57.44-1.24.88-2.01,1.3-.77.43-1.6.75-2.48.98-1.54.49-3.3.7-5.28.64-1.98-.06-3.72-.47-5.23-1.23l-.1-.05-.15-.1-.1-.05-.1-.05-.15-.1-.1-.05-.1-.05-.1-.1-.15-.05-.1-.1-.1-.05-.1-.1-.1-.1-.1-.05-.15-.1-.1-.05-.1-.1-.1-.1-.1-.1-.1-.05-.05-.1-.1-.1-.1-.1-.1-.1-.1-.05-.1-.1-.1-.1-.05-.1-.1-.1-.1-.1-.05-.1-.1-.1-.1-.1-.05-.1-.1-.1-.1-.1-.05-.1-.1-.1-.05-.15-.1-.1-.05-.1-.05-.1-.1-.1-.05-.1-.05-.15-.1-.1-.05-.1-.05-.1-.1-.15-.05-.1-.05-.1-.05-.15-.05-.1-.05-.1-.1-.15-.05-.1-.05-.1-.05-.15-.05-.1-.05-.15-.05-.1-.05-.1v-.15l-.05-.1-.05-.15-.05-.1-.05-.15-.05-.1v-.15l-.05-.1-.05-.15-.05-.1v-.15l-.05-.15v-.1l-.05-.15-.05-.1v-.15l-.05-.15v-.1l-.05-.15v-.25l-.05-.15v-.1l-.05-.15v-.25l-.05-.15v-.49l-.05-.15v-.54c0-.49.02-.98.05-1.47.29-3.3,1.42-5.94,3.39-7.9l.1-.1.1-.1.1-.1.1-.1.1-.1.1-.1.1-.05.1-.1h.05l.1-.1.1-.1.1-.05.1-.1.15-.1.1-.05.1-.1.1-.05h.05l.1-.1.1-.05.1-.05.05-.05.1-.05.1-.05.15-.05v-.05l.1-.05.1-.05.15-.05.1-.05.15-.1.1-.05.15-.05.1-.05.15-.05.1-.05.15-.05.1-.05.15-.05.1-.05h.15l.1-.05h.05l.1-.05.15-.05h.05l.05-.05h.15c.07-.03.13-.05.2-.05h.05v-.05h.15l.1-.05h.15l.1-.05h.15c.07-.03.15-.05.25-.05h.15v-.05h.39l.05-.05h.44l.1-.05h.59c2.65-.03,4.89.57,6.72,1.82l.05.05h.05l.05.1.1.05.05.05.1.05.05.05.1.1.05.05h.05l.05.05.05.05h.05l.05.1.05.05.1.05.05.1.1.05.05.05.05.1.1.05.05.05v.05l.05.05h.05l.05.05.05.1.05.05.1.1.05.05.05.1.05.05.05.1.05.05.1.1.05.1.05.05.05.1s.07.08.1.15l.05.1.05.1.05.05v.05l.05.05.05.1s.07.08.1.15c.07.13.13.28.2.44v.05l.05.05v.1l.05.05v.05l.05.1c.03.1.06.2.1.29v.1h.05v.1l.05.05v.15l.05.1v.1l.05.1v.1l.05.1v.15c.33,2.06.1,3.76-.69,5.1-.36.59-.8,1.06-1.32,1.42-.56.39-1.2.64-1.91.74-.26.07-.54.1-.83.1v-.05h-12.46c.13,1.11.36,2.14.69,3.09.72,2.09,1.77,3.66,3.14,4.71,1.93,1.51,4.69,1.77,8.29.78,2.03-.56,3.71-1.52,5.05-2.89,1.34-1.37,2.53-3.16,3.58-5.35v-7.85c0-1.08-.09-1.82-.27-2.21-.18-.39-.55-.69-1.1-.88-.26-.1-.34-.28-.25-.54.03-.1.1-.16.2-.2,1.18-.56,2.01-1,2.5-1.32.75-.46,1.39-.96,1.91-1.52.16-.16.34-.16.54,0,.1.07.15.16.15.29v5.45l.05-.1c.03-.1.08-.2.15-.29.92-2.09,2.32-3.6,4.22-4.51,1.7-.82,3.52-1.08,5.45-.79.82.1,1.6.33,2.35.69h.05c.46.2.88.44,1.28.74,1.24.88,2.03,2,2.35,3.34v.05c.03.13.05.25.05.34.07.65-.05,1.19-.34,1.62ZM195.97,52.04c-.21,1.29-.57,2.52-1.08,3.68-.51,1.16-1.14,2.18-1.89,3.07-2,2.45-4.42,3.7-7.26,3.73h-.1c-2.62,0-4.79-.79-6.53-2.36v1.77c0,.26-.13.39-.39.39h-4.22c-.26,0-.39-.13-.39-.39s.13-.39.39-.39h.88l.05-8.69s.08-.07.15-.1c.07-.03.13-.07.2-.1l.05-.05c1.37-.88,2.4-2.47,3.09-4.76v2.75c0,3.47.56,6.12,1.67,7.95.23.39.49.74.79,1.03l.05.05c.36.39.75.74,1.18,1.03.91.62,1.82.97,2.7,1.03.95.07,1.85-.16,2.7-.69,1.73-1.08,2.99-3.09,3.78-6.04.29-1.24.49-2.53.59-3.88v-1.08c0-.49-.02-1.03-.05-1.62-.03-.46-.07-.85-.1-1.18-.1-.85-.26-1.65-.49-2.4-.43-1.54-1.05-2.8-1.86-3.8-.82-1-1.82-1.6-2.99-1.79-.16-.03-.34-.05-.54-.05h-.2c-1.02,0-1.98.16-2.9.49-.75.29-1.42.66-1.99,1.1-.57.44-1.06,1-1.45,1.67-.39.67-.62,1.4-.69,2.18l-.1.05c-.17,1.28-.41,2.42-.74,3.43-.62,1.93-1.52,3.26-2.7,3.97h-.05c-.65.43-1.36.62-2.11.59-.65-.03-1.31-.25-1.96-.64-.59-.36-1.08-.83-1.47-1.42v10.94h.93c.26,0,.39.13.39.39s-.13.39-.39.39h-4.22c-.26,0-.39-.13-.39-.39v-4.51c-.26.56-.57,1.08-.93,1.57-1.18,1.57-2.75,2.55-4.71,2.94h-.1v.05h-.25v.05h-.29l-.05.05h-.44v.05h-1.18l-.1-.05h-.34l-.15-.05h-.2l-.05-.05h-.29l-.05-.05h-.1l-.1-.05h-.15l-.1-.05h-.05l-.1-.05h-.1l-.05-.05-.25-.05-.1-.05-.05-.05h-.1l-.1-.05-.15-.05-.1-.05-.05-.05h-.1l-.15-.1-.05-.05h-.1l-.1-.05-.05-.05-.1-.05-.15-.1-.05-.05-.1-.05-.15-.1h-.05l-.15-.1-.1-.1-.05-.05-.2-.15-.1-.05c-1.6-1.28-2.65-3.06-3.14-5.35-.16-.85-.25-1.75-.25-2.7v-7.36c0-1.08-.08-1.82-.25-2.21-.16-.39-.54-.7-1.13-.93-.23-.07-.29-.23-.2-.49.03-.1.1-.16.2-.2,1.14-.59,1.98-1.03,2.5-1.33.72-.46,1.34-.96,1.86-1.52.2-.2.39-.2.59,0,.07.07.1.16.1.29v14.28c0,.62.03,1.19.1,1.72.16,2.26.74,3.94,1.72,5.05.92,1.05,2.19,1.57,3.83,1.57.23,0,.46-.02.69-.05,1.8-.36,3.22-1.24,4.27-2.65,1.01-1.34,1.54-2.98,1.57-4.91v-8.69c0-1.08-.08-1.82-.25-2.21-.16-.39-.54-.7-1.13-.93-.23-.07-.31-.23-.25-.49.07-.1.15-.16.25-.2,1.14-.59,1.98-1.03,2.5-1.32.75-.46,1.37-.96,1.86-1.52.2-.2.39-.2.59,0,.07.07.1.16.1.29v9.62c0,.62.18,1.23.54,1.82.36.59.82,1.05,1.37,1.37.49.33,1.01.49,1.57.49.59.03,1.14-.11,1.67-.44.07-.03.15-.08.25-.15v-16.49c0-1.08-.09-1.82-.27-2.21-.18-.39-.55-.69-1.1-.88-.26-.1-.34-.28-.25-.54.03-.1.1-.16.2-.2,1.18-.56,2.01-1,2.5-1.32.75-.46,1.39-.95,1.91-1.47.16-.2.34-.21.54-.05.1.1.15.2.15.29v13.74c.82-1.47,2.13-2.53,3.93-3.19.72-.26,1.49-.44,2.31-.54h.49c.2-.03.35-.05.47-.05s.27.02.47.05c.65,0,1.31.08,1.96.25.62.16,1.24.38,1.87.64.16.1.36.21.59.34.2.1.38.2.54.29.33.23.67.49,1.03.78,1.77,1.57,2.85,3.71,3.24,6.43.03.13.07.26.1.39v.05c.03.23.05.43.05.59v.05c.13,1.28.09,2.56-.12,3.85ZM204.72,62.33h-5.5c-.26,0-.39-.13-.39-.39s.13-.39.39-.39h.88v-16.64c0-1.08-.08-1.82-.25-2.21-.16-.39-.54-.69-1.13-.88-.23-.1-.29-.28-.2-.54.03-.1.1-.16.2-.2,1.14-.59,1.98-1.03,2.5-1.32.75-.46,1.37-.96,1.86-1.52.2-.2.39-.2.59,0,.07.07.1.16.1.29v23.01h.93c.26,0,.39.13.39.39s-.13.39-.39.39ZM228.72,45.84c-.03.59-.21,1.09-.54,1.5-.33.41-.72.65-1.18.71-.1,0-.19,0-.27-.02-.08-.02-.16-.02-.22-.02-.39-.13-.69-.39-.88-.79-.17-.39-.23-.88-.2-1.47.03-.36.11-.74.25-1.13.1-.42.15-.83.15-1.23-.03-.98-.43-1.83-1.18-2.55-.79-.75-1.86-1.29-3.24-1.62-2.19-.52-4.09-.3-5.69.66-1.6.97-2.8,2.71-3.58,5.23-.52,1.64-.78,3.38-.76,5.23.02,1.85.29,3.57.81,5.18.59,1.77,1.46,3.2,2.6,4.29,1.14,1.1,2.53,1.68,4.17,1.74,2.19-.07,4.1-.69,5.74-1.87,1.57-1.11,2.5-2.55,2.8-4.32.03-.26.18-.37.44-.32.26.05.38.2.34.47-.36,1.96-1.41,3.58-3.14,4.86-1.93,1.41-4.27,2.06-7.02,1.96s-5.07-1.05-6.97-2.85l-.1-.1-.1-.1-.1-.1-.1-.1-.1-.05-.05-.1-.1-.1-.1-.1-.05-.1-.1-.1-.1-.1-.05-.1-.1-.1-.05-.1-.1-.1-.05-.15-.1-.1-.05-.1-.1-.1-.05-.1-.1-.1-.05-.15-.05-.1-.1-.1-.05-.1-.05-.15-.1-.1-.05-.1-.05-.1-.05-.15c-1.11-2.22-1.56-4.63-1.32-7.21.29-3.3,1.42-5.94,3.39-7.9l.1-.1.1-.1.1-.1.1-.1.1-.1.1-.1.1-.1.15-.05.1-.1.1-.1c2.03-1.5,4.4-2.24,7.12-2.21,2.13,0,4.06.5,5.79,1.5,1.73,1,2.91,2.43,3.53,4.29.26.72.36,1.36.29,1.91ZM250.85,62.18h-4.17c-.29,0-.44-.13-.44-.39v-3.04c-.56.92-1.29,1.67-2.21,2.26-1.6,1.01-3.48,1.45-5.62,1.3-2.14-.15-3.92-.81-5.32-1.99l-.1-.1-.05-.1-.1-.1s-.07-.05-.1-.05l-.1-.1s-.05-.07-.05-.1l-.1-.1s-.07-.03-.1-.1c-.98-1.18-1.47-2.53-1.47-4.07v-.49l.05-.05v-.25l.05-.1v-.25l.05-.05v-.15l.05-.05v-.15l.05-.05v-.15l.05-.05v-.05l.05-.05v-.15l.05-.05v-.1l.05-.05.05-.1v-.05l.05-.05v-.05l.05-.1.05-.1c.72-1.47,1.85-2.58,3.39-3.31,1.54-.74,3.27-1.1,5.2-1.1h6.08v-1.42c-.03-2.72-.54-4.76-1.52-6.13-.98-1.37-2.44-2.06-4.37-2.06h-.2c-.43,0-.83.05-1.23.15-1.11.23-1.91.7-2.4,1.42-.49.72-.67,1.62-.54,2.7.23.79.18,1.42-.15,1.91-.23.33-.51.54-.83.64-.13.03-.26.05-.39.05-.1,0-.2-.02-.29-.05-.43-.1-.77-.33-1.03-.69-.26-.39-.39-.88-.39-1.47,0-1.41.75-2.67,2.26-3.78,1.01-.75,2.22-1.26,3.63-1.52.42-.1.87-.16,1.32-.2h1.08l.1.05c2.72.16,4.86,1.06,6.43,2.7,1.5,1.57,2.26,3.71,2.26,6.43v14.23h.88c.26,0,.39.13.39.39s-.13.39-.39.39ZM274.75,45.84c-.03.59-.21,1.09-.54,1.5-.33.41-.72.65-1.18.71-.1,0-.19,0-.27-.02-.08-.02-.16-.02-.22-.02-.39-.13-.69-.39-.88-.79-.16-.39-.23-.88-.2-1.47.03-.36.11-.74.25-1.13.1-.42.15-.83.15-1.23-.03-.98-.43-1.83-1.18-2.55-.79-.75-1.86-1.29-3.24-1.62-2.19-.52-4.09-.3-5.69.66-1.6.97-2.8,2.71-3.58,5.23-.52,1.64-.78,3.38-.76,5.23.02,1.85.29,3.57.81,5.18.59,1.77,1.46,3.2,2.6,4.29,1.14,1.1,2.53,1.68,4.17,1.74,2.19-.07,4.1-.69,5.74-1.87,1.57-1.11,2.5-2.55,2.8-4.32.03-.26.18-.37.44-.32.26.05.38.2.34.47-.36,1.96-1.41,3.58-3.14,4.86-1.93,1.41-4.27,2.06-7.02,1.96-2.75-.1-5.07-1.05-6.97-2.85l-.1-.1-.1-.1-.1-.1-.1-.1-.1-.05-.05-.1-.1-.1-.1-.1-.05-.1-.1-.1-.1-.1-.05-.1-.1-.1-.05-.1-.1-.1-.05-.15-.1-.1-.05-.1-.1-.1-.05-.1-.1-.1-.05-.15-.05-.1-.1-.1-.05-.1-.05-.15-.1-.1-.05-.1-.05-.1-.05-.15c-1.11-2.22-1.56-4.63-1.32-7.21.29-3.3,1.42-5.94,3.39-7.9l.1-.1.1-.1.1-.1.1-.1.1-.1.1-.1.1-.1.15-.05.1-.1.1-.1c2.03-1.5,4.4-2.24,7.12-2.21,2.13,0,4.06.5,5.79,1.5,1.73,1,2.91,2.43,3.53,4.29.26.72.36,1.36.29,1.91ZM283.29,62.33h-5.5c-.26,0-.39-.13-.39-.39s.13-.39.39-.39h.88v-16.64c0-1.08-.08-1.82-.25-2.21-.16-.39-.54-.69-1.13-.88-.23-.1-.29-.28-.2-.54.03-.1.1-.16.2-.2,1.14-.59,1.98-1.03,2.5-1.32.75-.46,1.37-.96,1.86-1.52.2-.2.39-.2.59,0,.07.07.1.16.1.29v23.01h.93c.26,0,.39.13.39.39s-.13.39-.39.39ZM306.2,58.79c-1.11,1.15-2.4,2.02-3.88,2.63-1.47.61-2.99.91-4.56.91-1.05,0-2.07-.13-3.07-.39-1-.26-1.95-.66-2.87-1.2-.92-.54-1.75-1.19-2.5-1.94-2.19-2.26-3.29-5.11-3.29-8.56s1.1-6.31,3.29-8.56c1.14-1.18,2.48-2.08,4-2.7,1.52-.62,3.07-.92,4.64-.88,3.21.03,5.95,1.23,8.24,3.58,2.19,2.26,3.29,5.11,3.29,8.56s-1.1,6.31-3.29,8.56ZM332.6,62.33h-5.5c-.26,0-.39-.13-.39-.39s.13-.39.39-.39h.88v-15.21c-.1-2.26-.57-3.97-1.42-5.15-.82-1.14-1.93-1.72-3.34-1.72h-.25c-.52.07-1.03.21-1.52.44-2.26.92-3.71,2.81-4.37,5.69v15.95h.93c.26,0,.39.13.39.39s-.13.39-.39.39h-5.5c-.26,0-.39-.13-.39-.39s.13-.39.39-.39h.88v-16.64c0-1.08-.08-1.82-.25-2.21-.16-.39-.54-.69-1.13-.88-.23-.1-.29-.28-.2-.54.03-.1.1-.16.2-.2,1.14-.59,1.98-1.03,2.5-1.32.75-.46,1.37-.96,1.86-1.52.2-.2.39-.2.59,0,.07.07.1.16.1.29v4.61c.91-1.93,2.26-3.25,4.02-3.97,1.14-.49,2.33-.66,3.56-.52,1.23.15,2.36.6,3.41,1.35.03,0,.07.02.1.05v.05l.1.05.05.05.05.05h.05l.05.05.05.05.1.05.05.05.05.05.05.05.05.05.05.05.05.05.05.05.05.05.05.05.05.05.05.05h.05v.05l.05.05.05.05.05.05.05.05.05.05.05.05s.07.08.1.15h.05l.05.1.05.05.05.1c.95,1.24,1.54,2.75,1.77,4.51l.05.05v.39l.05.1v14.82h.93c.26,0,.39.13.39.39s-.13.39-.39.39Z"/>
      <path class="cls-4" d="M100.11,48.24c.29-.85.41-1.78.34-2.8-.07-.98-.31-1.91-.74-2.8-.52-1.14-1.3-2.07-2.33-2.77-1.03-.7-2.27-1.05-3.7-1.05-1.6.1-2.96.71-4.07,1.84-1.11,1.13-1.95,2.58-2.5,4.34-.52,1.64-.77,3.39-.74,5.25,0,.43.02.85.05,1.28h9.67c2.03-.16,3.37-1.26,4.02-3.29Z"/>
      <path class="cls-2" d="M297.91,38.92c-2.29-.03-4.24,1.05-5.84,3.24-1.6,2.19-2.4,4.88-2.4,8.07s.8,5.88,2.4,8.07c1.54,2.13,3.45,3.19,5.74,3.19,2.26-.03,4.14-1.1,5.64-3.19,1.6-2.19,2.41-4.88,2.41-8.07s-.8-5.88-2.41-8.07c-1.5-2.09-3.35-3.17-5.54-3.24Z"/>
      <path class="cls-1" d="M236.82,50.23c-.92.67-1.59,1.55-2.01,2.63-.39,1.01-.54,2.06-.44,3.14.1,1.11.46,2.09,1.08,2.94,1.44,1.96,3.78,2.62,7.02,1.96.39-.16.77-.36,1.13-.59,1.24-.79,2.13-1.9,2.65-3.34v-7.75h-6.08c-1.31,0-2.42.34-3.34,1.01Z"/>
    </g>
  </g>
</svg>